# Blender v2.93.5 OBJ File: 'Arena.blend'
# www.blender.org
mtllib Arena.mtl
o Arena_Cube.001
v -69.889847 -170.738174 110.104485
v -69.889847 -132.414566 110.104485
v -69.889847 -170.738174 -110.104485
v -69.889847 -132.414566 -110.104485
v 69.889847 -170.738174 110.104485
v 69.889847 -132.414566 110.104485
v 69.889847 -170.738174 -110.104485
v 69.889847 -132.414566 -110.104485
v -91.811600 -170.738174 0.000000
v -164.700104 -132.339783 -0.000002
v -91.811600 -132.414566 0.000000
v 0.000000 -153.402725 -262.068207
v -0.000000 -170.738174 -146.089157
v -0.000000 -132.414566 -146.089157
v 0.000000 -132.339783 -262.068207
v 91.811600 -170.738174 0.000000
v 91.811600 -132.414566 0.000000
v -125.374847 -153.402725 197.515594
v -0.000000 -170.738174 146.089157
v -0.000000 -132.414566 146.089157
v -0.000000 -132.597595 0.000000
v -0.000000 -170.738174 0.000000
v -164.700104 -153.402725 -0.000002
v 125.374847 -132.339783 -197.515594
v -125.374847 -153.402725 -197.515594
v -125.374847 -132.339783 -197.515594
v 164.700104 -153.402725 -0.000002
v 125.374847 -153.402725 -197.515594
v 164.700104 -132.339783 -0.000002
v 125.374847 -132.339783 197.515594
v 0.000000 -153.402725 262.068207
v 125.374847 -153.402725 197.515594
v 0.000000 -132.339783 262.068207
v -125.374847 -132.339783 197.515594
v 0.000000 -6.806047 -410.751709
v 196.505829 -6.806047 -309.575378
v 0.000000 -6.806047 410.751709
v -196.505829 -6.806047 309.575378
v -196.505829 -6.806047 -309.575378
v -196.505829 -72.955170 -309.575378
v -258.142151 -6.806047 -0.000004
v 258.142151 -72.955170 -0.000004
v 196.505829 -72.955170 -309.575378
v 0.000000 -72.955170 -410.751709
v -258.142151 -72.955170 -0.000004
v -196.505829 -72.955170 309.575378
v 196.505829 -72.955170 309.575378
v 0.000000 -72.955170 410.751709
v 258.142151 -6.806047 -0.000004
v 196.505829 -6.806047 309.575378
v -0.000000 -6.786327 -453.332123
v 216.876556 -6.786327 -341.667389
v -0.000000 -6.786327 453.332123
v -216.876556 -6.786327 341.667389
v -216.876556 -6.786327 -341.667389
v -216.876556 -76.297722 -341.667389
v -284.902374 -6.786327 -0.000004
v 284.902374 -76.297722 -0.000004
v 216.876556 -76.297722 -341.667389
v -0.000000 -76.297722 -453.332123
v -284.902374 -76.297722 -0.000004
v -216.876556 -76.297722 341.667389
v 216.876556 -76.297722 341.667389
v -0.000000 -76.297722 453.332123
v 284.902374 -6.786327 -0.000004
v 216.876556 -6.786327 341.667389
v 0.000000 103.427284 -410.751709
v 196.505829 103.427284 -309.575378
v 0.000000 103.427284 410.751709
v -196.505829 103.427284 309.575378
v -216.876556 103.446983 341.667389
v -258.142151 103.427284 -0.000004
v -196.505829 103.427284 -309.575378
v 258.142151 103.427284 -0.000004
v 196.505829 103.427284 309.575378
v -284.902374 103.446983 -0.000004
v -216.876556 103.446983 -341.667389
v -0.000000 103.446983 -453.332123
v 216.876556 103.446983 -341.667389
v -0.000000 103.446983 453.332123
v 284.902374 103.446983 -0.000004
v 216.876556 103.446983 341.667389
v -0.000000 -61.421143 -261.048462
v 124.886993 -61.421143 196.747009
v -0.000000 -61.421143 261.048462
v -124.886993 -61.421143 -196.747009
v 124.886993 -61.421143 -196.747009
v -164.059219 -61.421143 -0.000002
v 164.059219 -61.421143 -0.000002
v -124.886993 -61.421143 196.747009
v -0.000001 209.669418 -209.401962
v 100.179039 209.669418 -157.822098
v -0.000001 209.669418 209.401962
v -100.179039 209.669418 157.822098
v -110.564064 209.679459 174.182648
v -131.601334 209.669418 -0.000002
v -100.179039 209.669418 -157.822098
v 131.601334 209.669418 -0.000002
v 100.179039 209.669418 157.822098
v -145.243744 209.679459 -0.000002
v -110.564064 209.679459 -174.182648
v -0.000002 209.679459 -231.109528
v 110.564064 209.679459 -174.182648
v -0.000002 209.679459 231.109528
v 145.243744 209.679459 -0.000002
v 110.564064 209.679459 174.182648
v -0.000001 222.928604 -209.401962
v 100.179039 222.928604 -157.822098
v -0.000001 222.928604 209.401962
v -100.179039 222.928604 157.822098
v -110.564064 222.938629 174.182648
v -131.601334 222.928604 -0.000002
v -100.179039 222.928604 -157.822098
v 131.601334 222.928604 -0.000002
v 100.179039 222.928604 157.822098
v -145.243744 222.938629 -0.000002
v -110.564064 222.938629 -174.182648
v -0.000002 222.938629 -231.109528
v 110.564064 222.938629 -174.182648
v -0.000002 222.938629 231.109528
v 145.243744 222.938629 -0.000002
v 110.564064 222.938629 174.182648
v -0.000000 216.299011 0.000001
v -0.000001 146.632050 47.590935
v -22.767759 146.632050 35.868343
v -29.909122 146.632050 -0.000000
v 29.909126 146.632050 -0.000000
v 22.767748 146.632050 -35.868343
v -0.000001 148.138794 0.000000
v 11.929176 169.427078 18.793243
v 15.670906 169.427078 -0.000000
v -11.929184 169.427078 -18.793243
v -15.670906 169.427078 -0.000000
v -11.929184 169.427078 18.793243
v -0.000002 169.427078 24.935303
v 11.929176 169.427078 -18.793243
v -0.000002 169.427078 -24.935303
v 22.767748 146.632050 35.868343
v -22.767759 146.632050 -35.868343
v -0.000001 146.632050 -47.590935
vt 0.875000 0.625000
vt 0.875000 0.500000
vt 0.875000 0.500000
vt 0.875000 0.625000
vt 0.375000 0.500000
vt 0.250000 0.500000
vt 0.250000 0.500000
vt 0.375000 0.500000
vt 0.625000 0.750000
vt 0.750000 0.750000
vt 0.750000 0.750000
vt 0.625000 0.750000
vt 0.625000 0.625000
vt 0.625000 0.625000
vt 0.250000 0.625000
vt 0.375000 0.625000
vt 0.375000 0.750000
vt 0.250000 0.750000
vt 0.750000 0.625000
vt 0.875000 0.750000
vt 0.625000 0.500000
vt 0.750000 0.500000
vt 0.125000 0.625000
vt 0.125000 0.750000
vt 0.125000 0.500000
vt 0.625000 0.625000
vt 0.625000 0.750000
vt 0.625000 0.750000
vt 0.625000 0.625000
vt 0.875000 0.625000
vt 0.875000 0.500000
vt 0.875000 0.500000
vt 0.875000 0.625000
vt 0.750000 0.500000
vt 0.625000 0.500000
vt 0.625000 0.500000
vt 0.750000 0.500000
vt 0.750000 0.500000
vt 0.125000 0.750000
vt 0.125000 0.625000
vt 0.250000 0.750000
vt 0.375000 0.750000
vt 0.375000 0.750000
vt 0.250000 0.750000
vt 0.125000 0.500000
vt 0.125000 0.625000
vt 0.125000 0.500000
vt 0.750000 0.750000
vt 0.750000 0.750000
vt 0.375000 0.625000
vt 0.375000 0.625000
vt 0.875000 0.750000
vt 0.625000 0.500000
vt 0.250000 0.500000
vt 0.125000 0.500000
vt 0.250000 0.500000
vt 0.625000 0.375000
vt 0.625000 0.250000
vt 0.625000 0.250000
vt 0.625000 0.375000
vt 0.375000 0.500000
vt 0.375000 0.500000
vt 0.375000 0.625000
vt 0.875000 0.750000
vt 0.875000 0.625000
vt 0.875000 0.750000
vt 0.125000 0.750000
vt 0.250000 0.750000
vt 0.125000 0.750000
vt 0.625000 0.625000
vt 0.625000 0.500000
vt 0.625000 0.500000
vt 0.625000 0.625000
vt 0.625000 1.000000
vt 0.625000 0.875000
vt 0.625000 0.875000
vt 0.625000 1.000000
vt 0.875000 0.750000
vt 0.625000 0.000000
vt 0.625000 0.125000
vt 0.375000 0.125000
vt 0.375000 0.000000
vt 0.375000 0.250000
vt 0.375000 0.375000
vt 0.625000 0.750000
vt 0.375000 0.750000
vt 0.375000 0.875000
vt 0.375000 1.000000
vt 0.125000 0.625000
vt 0.875000 0.500000
vt 0.625000 0.750000
vt 0.750000 0.500000
vt 0.625000 0.500000
vt 0.625000 0.500000
vt 0.750000 0.500000
vt 0.625000 0.625000
vt 0.625000 0.625000
vt 0.625000 0.125000
vt 0.625000 0.125000
vt 0.625000 0.250000
vt 0.625000 0.750000
vt 0.625000 0.750000
vt 0.625000 0.875000
vt 0.625000 1.000000
vt 0.875000 0.625000
vt 0.875000 0.750000
vt 0.625000 0.375000
vt 0.625000 0.500000
vt 0.625000 0.750000
vt 0.750000 0.750000
vt 0.625000 0.000000
vt 0.625000 0.750000
vt 0.625000 0.875000
vt 0.750000 0.750000
vt 0.625000 0.750000
vt 0.750000 0.750000
vt 0.625000 0.625000
vt 0.625000 0.500000
vt 0.625000 0.625000
vt 0.875000 0.750000
vt 0.875000 0.750000
vt 0.875000 0.625000
vt 0.875000 0.750000
vt 0.625000 0.000000
vt 0.625000 0.000000
vt 0.625000 0.125000
vt 0.625000 0.500000
vt 0.750000 0.500000
vt 0.625000 0.500000
vt 0.750000 0.750000
vt 0.875000 0.500000
vt 0.750000 0.750000
vt 0.875000 0.625000
vt 0.875000 0.625000
vt 0.875000 0.750000
vt 0.875000 0.500000
vt 0.875000 0.500000
vt 0.750000 0.500000
vt 0.625000 0.625000
vt 0.625000 0.375000
vt 0.625000 0.625000
vt 0.625000 1.000000
vt 0.625000 0.625000
vt 0.625000 0.500000
vt 0.625000 0.250000
vt 0.750000 0.750000
vt 0.625000 0.750000
vt 0.625000 0.750000
vt 0.625000 0.500000
vt 0.625000 0.625000
vt 0.625000 0.500000
vt 0.750000 0.500000
vt 0.750000 0.500000
vt 0.875000 0.625000
vt 0.875000 0.750000
vt 0.875000 0.500000
vt 0.875000 0.500000
vt 0.750000 0.500000
vt 0.625000 0.750000
vt 0.875000 0.500000
vt 0.750000 0.500000
vt 0.875000 0.625000
vt 0.750000 0.750000
vt 0.625000 0.625000
vt 0.875000 0.750000
vt 0.875000 0.500000
vt 0.750000 0.750000
vt 0.625000 0.750000
vt 0.875000 0.625000
vn 0.0010 1.0000 0.0002
vn 0.0759 -0.9862 -0.1474
vn -0.0003 1.0000 -0.0006
vn -0.0010 1.0000 -0.0002
vn 0.0000 -1.0000 0.0000
vn 0.0013 1.0000 -0.0008
vn -0.0013 1.0000 -0.0008
vn -0.0013 1.0000 0.0008
vn 0.0013 1.0000 0.0008
vn -0.4996 0.8606 -0.0995
vn 0.4996 0.8606 0.0995
vn -0.1738 0.9251 0.3375
vn 0.0003 1.0000 0.0006
vn -0.2311 -0.9718 0.0460
vn 0.1738 0.9251 0.3375
vn 0.2380 -0.8542 0.4622
vn -0.0759 -0.9862 0.1474
vn -0.6470 -0.7515 -0.1288
vn -0.1738 0.9251 -0.3375
vn 0.2311 -0.9718 -0.0460
vn 0.6470 -0.7515 0.1288
vn 0.0010 1.0000 -0.0002
vn 0.0759 -0.9862 0.1474
vn 0.0003 1.0000 -0.0006
vn -0.0759 -0.9862 -0.1474
vn 0.2311 -0.9718 0.0460
vn -0.2311 -0.9718 -0.0460
vn -0.0003 1.0000 0.0006
vn -0.0010 1.0000 0.0002
vn 0.0403 -0.9961 0.0782
vn -0.4578 0.0000 -0.8891
vn -0.1239 -0.9920 0.0247
vn 0.9808 0.0000 -0.1953
vn 0.0403 -0.9961 -0.0782
vn -0.0403 -0.9961 0.0782
vn -0.4578 0.0000 0.8891
vn 0.6470 -0.7515 -0.1288
vn 0.1738 0.9251 -0.3375
vn 0.2380 -0.8542 -0.4622
vn -0.2380 -0.8542 -0.4622
vn -0.4996 0.8606 0.0995
vn 0.4996 0.8606 -0.0995
vn -0.6470 -0.7515 0.1288
vn -0.2380 -0.8542 0.4622
vn -0.9808 0.0000 0.1953
vn 0.9808 0.0000 0.1953
vn -0.9808 0.0000 -0.1953
vn 0.4578 0.0000 -0.8891
vn 0.4578 0.0000 0.8891
vn 0.1239 -0.9920 0.0247
vn 0.1239 -0.9920 -0.0247
vn -0.0403 -0.9961 -0.0782
vn -0.1239 -0.9920 -0.0247
vn -0.2336 -0.8600 0.4538
vn -0.6378 -0.7597 0.1270
vn -0.6011 0.7902 -0.1197
vn -0.6378 -0.7597 -0.1270
vn -0.2168 0.8808 0.4210
vn 0.6378 -0.7597 -0.1270
vn 0.2168 0.8808 -0.4210
vn 0.2168 0.8808 0.4210
vn 0.9807 -0.0089 -0.1953
vn -0.9807 -0.0089 0.1953
vn 0.4577 -0.0128 -0.8890
vn -0.4577 -0.0128 -0.8890
vn 0.4577 -0.0128 0.8890
vn -0.4577 -0.0128 0.8890
vn 0.9807 -0.0089 0.1953
vn -0.9807 -0.0089 -0.1953
vn -0.0163 0.9994 -0.0316
vn 0.0163 0.9994 -0.0316
vn -0.3272 -0.9427 0.0652
vn -0.0163 0.9994 0.0316
vn -0.2168 0.8808 -0.4210
vn 0.2336 -0.8600 -0.4538
vn -0.6011 0.7902 0.1197
vn -0.2336 -0.8600 -0.4538
vn 0.6011 0.7902 0.1197
vn 0.6378 -0.7597 0.1270
vn 0.6011 0.7902 -0.1197
vn 0.2336 -0.8600 0.4538
vn -0.0002 1.0000 -0.0005
vn 0.0007 1.0000 -0.0001
vn 0.0007 1.0000 0.0001
vn 0.0002 1.0000 0.0005
vn -0.0002 1.0000 0.0005
vn -0.0007 1.0000 -0.0001
vn 0.0002 1.0000 -0.0005
vn -0.0007 1.0000 0.0001
vn -0.0503 0.9987 0.0100
vn 0.3272 -0.9427 -0.0652
vn 0.1091 -0.9712 0.2119
vn -0.0503 0.9987 -0.0100
vn -0.0503 -0.9987 0.0100
vn -0.0163 -0.9994 0.0316
vn -0.8363 0.5224 0.1665
vn -0.8363 0.5224 -0.1665
vn 0.3430 0.6622 -0.6662
vn 0.8363 0.5224 -0.1665
vn 0.8363 0.5224 0.1665
vn -0.3430 0.6622 -0.6662
vn 0.1091 -0.9712 -0.2119
vn -0.1091 -0.9712 -0.2119
vn 0.0503 0.9987 0.0100
vn 0.3272 -0.9427 0.0652
vn 0.0163 0.9994 0.0316
vn -0.1091 -0.9712 0.2119
vn -0.3272 -0.9427 -0.0652
vn 0.0503 0.9987 -0.0100
vn -0.3430 0.6622 0.6662
vn 0.3430 0.6622 0.6662
vn -0.0503 -0.9987 -0.0100
vn 0.0503 -0.9987 -0.0100
vn 0.0163 -0.9994 0.0316
vn 0.0163 -0.9994 -0.0316
vn -0.0163 -0.9994 -0.0316
vn 0.0503 -0.9987 0.0100
usemtl None
s off
f 11/1/1 4/2/1 26/3/1 10/4/1
f 7/5/2 13/6/2 12/7/2 28/8/2
f 6/9/3 20/10/3 33/11/3 30/12/3
f 17/13/4 6/9/4 30/12/4 29/14/4
f 22/15/5 16/16/5 5/17/5 19/18/5
f 21/19/6 11/1/6 2/20/6 20/10/6
f 17/13/7 21/19/7 20/10/7 6/9/7
f 8/21/8 14/22/8 21/19/8 17/13/8
f 14/22/9 4/2/9 11/1/9 21/19/9
f 9/23/5 22/15/5 19/18/5 1/24/5
f 3/25/5 13/6/5 22/15/5 9/23/5
f 13/6/5 7/5/5 16/16/5 22/15/5
f 89/26/10 84/27/10 50/28/10 49/29/10
f 88/30/11 86/31/11 39/32/11 41/33/11
f 83/34/12 87/35/12 36/36/12 35/37/12
f 4/2/13 14/22/13 15/38/13 26/3/13
f 9/23/14 1/24/14 18/39/14 23/40/14
f 86/31/15 83/34/15 35/37/15 39/32/15
f 31/41/16 32/42/16 47/43/16 48/44/16
f 1/24/17 19/18/17 31/41/17 18/39/17
f 25/45/18 23/40/18 45/46/18 40/47/18
f 84/27/19 85/48/19 37/49/19 50/28/19
f 16/16/20 7/5/20 28/8/20 27/50/20
f 32/42/21 27/50/21 42/51/21 47/43/21
f 2/20/22 11/1/22 10/4/22 34/52/22
f 19/18/23 5/17/23 32/42/23 31/41/23
f 20/10/24 2/20/24 34/52/24 33/11/24
f 13/6/25 3/25/25 25/45/25 12/7/25
f 5/17/26 16/16/26 27/50/26 32/42/26
f 3/25/27 9/23/27 23/40/27 25/45/27
f 14/22/28 8/21/28 24/53/28 15/38/28
f 8/21/29 17/13/29 29/14/29 24/53/29
f 44/54/30 40/47/30 56/55/30 60/56/30
f 51/57/31 55/58/31 77/59/31 78/60/31
f 42/51/32 43/61/32 59/62/32 58/63/32
f 38/64/33 41/33/33 72/65/33 70/66/33
f 46/67/34 48/44/34 64/68/34 62/69/34
f 65/70/33 52/71/33 79/72/33 81/73/33
f 43/61/35 44/54/35 60/56/35 59/62/35
f 54/74/36 53/75/36 80/76/36 71/77/36
f 27/50/37 28/8/37 43/61/37 42/51/37
f 85/48/38 90/78/38 38/64/38 37/49/38
f 28/8/39 12/7/39 44/54/39 43/61/39
f 12/7/40 25/45/40 40/47/40 44/54/40
f 87/35/41 89/26/41 49/29/41 36/36/41
f 90/78/42 88/30/42 41/33/42 38/64/42
f 23/40/43 18/39/43 46/67/43 45/46/43
f 18/39/44 31/41/44 48/44/44 46/67/44
f 59/62/33 52/71/33 65/70/33 58/63/33
f 54/79/45 57/80/45 61/81/45 62/82/45
f 56/83/31 55/58/31 51/57/31 60/84/31
f 58/63/46 65/70/46 66/85/46 63/86/46
f 64/87/36 53/75/36 54/74/36 62/88/36
f 61/81/47 57/80/47 55/58/47 56/83/47
f 60/84/48 51/57/48 52/71/48 59/62/48
f 63/86/49 66/85/49 53/75/49 64/87/49
f 40/47/50 45/46/50 61/89/50 56/55/50
f 45/46/51 46/67/51 62/69/51 61/89/51
f 48/44/52 47/43/52 63/86/52 64/68/52
f 47/43/53 42/51/53 58/63/53 63/86/53
f 41/33/46 39/32/46 73/90/46 72/65/46
f 66/85/46 65/70/46 81/73/46 82/91/46
f 52/71/48 51/57/48 78/60/48 79/72/48
f 39/32/49 35/37/49 67/92/49 73/90/49
f 67/92/54 68/93/54 92/94/54 91/95/54
f 68/93/55 74/96/55 98/97/55 92/94/55
f 77/59/56 76/98/56 100/99/56 101/100/56
f 74/96/57 75/101/57 99/102/57 98/97/57
f 71/77/58 80/76/58 104/103/58 95/104/58
f 70/66/59 72/65/59 96/105/59 94/106/59
f 79/72/60 78/60/60 102/107/60 103/108/60
f 80/76/61 82/91/61 106/109/61 104/103/61
f 50/28/31 37/49/31 69/110/31 75/101/31
f 55/58/47 57/80/47 76/98/47 77/59/47
f 57/80/45 54/79/45 71/111/45 76/98/45
f 53/75/49 66/85/49 82/91/49 80/76/49
f 35/37/36 36/36/36 68/93/36 67/92/36
f 49/29/47 50/28/47 75/101/47 74/96/47
f 37/49/48 38/64/48 70/66/48 69/110/48
f 36/36/45 49/29/45 74/96/45 68/93/45
f 34/52/62 10/4/62 88/30/62 90/78/62
f 24/53/63 29/14/63 89/26/63 87/35/63
f 33/11/64 34/52/64 90/78/64 85/48/64
f 30/12/65 33/11/65 85/48/65 84/27/65
f 26/3/66 15/38/66 83/34/66 86/31/66
f 15/38/67 24/53/67 87/35/67 83/34/67
f 10/4/68 26/3/68 86/31/68 88/30/68
f 29/14/69 30/12/69 84/27/69 89/26/69
f 104/103/49 106/109/49 122/112/49 120/113/49
f 109/114/70 115/115/70 123/116/70
f 105/117/33 103/108/33 119/118/33 121/119/33
f 110/120/71 109/114/71 123/121/71
f 106/109/46 105/117/46 121/119/46 122/112/46
f 94/106/72 96/105/72 133/122/72 134/123/72
f 100/99/45 95/124/45 111/125/45 116/126/45
f 108/127/73 107/128/73 123/129/73
f 78/60/74 77/59/74 101/100/74 102/107/74
f 69/110/75 70/66/75 94/106/75 93/130/75
f 76/98/76 71/111/76 95/124/76 100/99/76
f 75/101/77 69/110/77 93/130/77 99/102/77
f 82/91/78 81/73/78 105/117/78 106/109/78
f 72/65/79 73/90/79 97/131/79 96/105/79
f 81/73/80 79/72/80 103/108/80 105/117/80
f 73/90/81 67/92/81 91/95/81 97/131/81
f 115/115/82 109/114/82 120/132/82 122/112/82
f 110/120/83 112/133/83 116/134/83 111/135/83
f 112/133/84 113/136/84 117/137/84 116/134/84
f 113/136/85 107/128/85 118/138/85 117/137/85
f 107/128/86 108/127/86 119/118/86 118/138/86
f 114/139/87 115/115/87 122/112/87 121/119/87
f 109/114/88 110/120/88 111/135/88 120/132/88
f 108/127/89 114/139/89 121/119/89 119/118/89
f 103/108/48 102/107/48 118/140/48 119/118/48
f 114/139/90 108/127/90 123/141/90
f 95/104/36 104/103/36 120/113/36 111/142/36
f 92/94/91 98/97/91 131/143/91 136/144/91
f 101/100/47 100/99/47 116/126/47 117/145/47
f 99/102/92 93/130/92 135/146/92 130/147/92
f 115/115/93 114/139/93 123/148/93
f 102/107/31 101/100/31 117/145/31 118/140/31
f 128/149/94 127/150/94 129/151/94
f 140/152/95 128/149/95 129/153/95
f 134/123/96 133/122/96 126/154/96 125/155/96
f 133/122/97 132/156/97 139/157/97 126/154/97
f 137/158/98 136/144/98 128/149/98 140/152/98
f 136/144/99 131/143/99 127/150/99 128/149/99
f 131/143/100 130/147/100 138/159/100 127/150/100
f 132/156/101 137/158/101 140/152/101 139/157/101
f 91/95/102 92/94/102 136/144/102 137/158/102
f 97/131/103 91/95/103 137/158/103 132/156/103
f 113/136/104 112/133/104 123/160/104
f 98/97/105 99/102/105 130/147/105 131/143/105
f 107/128/106 113/136/106 123/161/106
f 93/130/107 94/106/107 134/123/107 135/146/107
f 96/105/108 97/131/108 132/156/108 133/122/108
f 112/133/109 110/120/109 123/162/109
f 135/146/110 134/123/110 125/155/110 124/163/110
f 130/147/111 135/146/111 124/163/111 138/159/111
f 127/150/112 138/159/112 129/164/112
f 125/155/113 126/154/113 129/165/113
f 139/157/114 140/152/114 129/166/114
f 124/163/115 125/155/115 129/167/115
f 138/159/116 124/163/116 129/168/116
f 126/154/117 139/157/117 129/169/117
