# Blender v2.81 (sub 16) OBJ File: 'Spaceship.blend'
# www.blender.org
mtllib Fighter.mtl
g Spaceplane_SpaceFighter
v 0.001244 0.189598 -5.889651
v -2.344011 -0.225408 -4.067133
v -2.344011 -0.225408 4.673832
v 0.001244 1.537748 0.576361
v -2.344011 -0.316758 0.576361
v -2.190016 0.189598 -4.436071
v -2.193274 0.598027 0.576361
v -1.709521 0.189598 -4.747130
v -1.709521 1.137545 0.576361
v -1.204937 0.226864 6.421930
v -1.204936 1.298207 0.576361
v -1.204936 0.189598 -5.073784
v -0.600404 0.226864 6.993536
v -0.600403 1.383263 0.576361
v -0.600403 0.189598 -5.465142
v 0.001244 0.371462 -7.018224
v -2.343791 -0.225408 -5.195695
v -2.112103 0.189598 -5.383903
v -1.709521 0.371462 -5.875702
v -1.204936 0.371462 -6.202357
v -0.600403 0.371462 -6.593715
v 0.001244 -0.147549 -7.018224
v -2.144494 -0.183309 -5.409364
v -1.709521 -0.147549 -5.875702
v -1.204936 -0.147549 -6.202357
v -0.600403 -0.147549 -6.593715
v 0.001244 0.296830 7.613564
v -2.135349 -0.225560 5.058599
v -2.196461 0.189598 5.484410
v -1.709523 0.189598 5.944827
v -1.359429 -0.199508 5.883725
v -0.754896 -0.199508 6.455331
v -1.851945 -0.199508 5.406622
v 0.001312 -0.624423 7.075359
v -7.123313 0.073937 -2.730455
v -7.153296 -0.006867 -2.708330
v -7.153296 -0.006867 -2.184130
v -7.124568 0.073937 -2.135520
v -7.123947 0.140143 -2.429858
v -2.135348 -0.321165 0.684633
v -1.359429 -1.159490 0.701766
v -1.864015 -1.159490 0.698321
v 0.001312 -0.878738 0.710372
v -0.754897 -1.159490 0.705894
v -2.135348 -0.223859 -3.958879
v -1.359429 -0.980711 -4.646725
v -1.864015 -0.980711 -4.650171
v 0.001312 -0.645596 -4.044071
v -0.754897 -0.980711 -4.642597
v -2.267013 -0.017905 -4.251602
v -2.270236 0.000728 5.079121
v -2.227947 -0.017905 -5.289799
v -2.165905 -0.017981 5.271504
v -0.677650 -0.004955 6.724433
v -1.282183 -0.004955 6.152828
v 0.001278 -0.004955 7.344461
v -1.780734 -0.004955 5.675725
v -7.380310 0.068238 -2.284100
v 2.344008 -0.225408 -4.067133
v 2.344008 -0.225408 4.673832
v 2.344008 -0.316758 0.576361
v 2.190014 0.189598 -4.436071
v 2.193271 0.598027 0.576361
v 1.709519 0.189598 -4.747130
v 1.709519 1.137545 0.576361
v 1.204935 0.226864 6.421930
v 1.204934 1.298207 0.576361
v 1.204934 0.189598 -5.073784
v 0.600403 0.226864 6.993536
v 0.600401 1.383263 0.576361
v 0.600401 0.189598 -5.465142
v 2.343789 -0.225408 -5.195695
v 2.112101 0.189598 -5.383903
v 1.709519 0.371462 -5.875702
v 1.204934 0.371462 -6.202357
v 0.600401 0.371462 -6.593715
v 2.144491 -0.183309 -5.409364
v 1.709519 -0.147549 -5.875702
v 1.204934 -0.147549 -6.202357
v 0.600401 -0.147549 -6.593715
v 1.709521 0.189598 5.944827
v 2.196460 0.189598 5.484410
v 2.135346 -0.225560 5.058599
v 1.359427 -0.199508 5.883725
v 0.754895 -0.199508 6.455331
v 1.851943 -0.199508 5.406622
v 7.123310 0.073937 -2.730455
v 7.153294 -0.006867 -2.708330
v 7.153294 -0.006867 -2.184130
v 7.124565 0.073937 -2.135520
v 7.123944 0.140143 -2.429858
v 2.135346 -0.321165 0.684633
v 1.359427 -1.159490 0.701766
v 1.864013 -1.159490 0.698321
v 0.754895 -1.159490 0.705894
v 2.135346 -0.223859 -3.958879
v 1.359427 -0.980711 -4.646725
v 0.754895 -0.980711 -4.642597
v 1.864013 -0.980711 -4.650171
v 2.267011 -0.017905 -4.251602
v 2.270234 0.000728 5.079121
v 2.227945 -0.017905 -5.289799
v 2.165903 -0.017981 5.271504
v 0.677649 -0.004955 6.724433
v 1.282181 -0.004955 6.152828
v 1.780732 -0.004955 5.675725
v 7.380307 0.068238 -2.284099
vt 0.000000 0.000000
vt 0.232925 0.000000
vt 0.232925 0.487240
vt 0.000000 0.478850
vt 0.232925 1.000000
vt 0.000000 1.000000
vt 0.899928 1.000000
vt 0.799856 1.000000
vt 0.799856 1.000000
vt 0.899928 1.000000
vt 0.798724 0.507620
vt 0.797567 0.000000
vt 0.797567 0.000000
vt 0.798724 0.507620
vt 0.626891 0.501430
vt 0.626892 0.000000
vt 0.626892 1.000000
vt 0.447659 0.494974
vt 0.447659 0.000000
vt 0.447659 1.000000
vt 0.232925 0.000000
vt 0.447659 0.000000
vt 0.000000 0.000000
vt 0.626892 0.000000
vt 0.797567 0.000000
vt 0.898784 0.000000
vt 0.898783 0.000000
vt 0.000000 0.000000
vt 0.232925 0.000000
vt 0.447659 0.000000
vt 0.626892 0.000000
vt 0.743938 0.000000
vt 0.797567 0.000000
vt 0.797567 0.000000
vt 1.000000 1.000000
vt 1.000000 1.000000
vt 0.899928 1.000000
vt 0.447659 1.000000
vt 0.626892 1.000000
vt 0.626892 1.000000
vt 0.447659 1.000000
vt 0.232925 1.000000
vt 0.232925 1.000000
vt 0.000000 1.000000
vt 0.000000 1.000000
vt 0.799856 1.000000
vt 0.799856 1.000000
vt 0.000000 0.000000
vt 0.000000 0.000000
vt 0.000000 0.000000
vt 0.000000 0.000000
vt 0.000000 0.000000
vt 1.000000 0.000000
vt 0.898783 0.000000
vt 0.232925 1.000000
vt 0.000000 1.000000
vt 0.447659 1.000000
vt 1.000000 1.000000
vt 1.000000 1.000000
vt 0.626892 1.000000
vt 0.799856 1.000000
vt 0.232925 1.000000
vt 0.000000 1.000000
vt 0.447659 1.000000
vt 0.799856 1.000000
vt 0.626892 1.000000
vt 1.000000 1.000000
vt 1.000000 1.000000
vt 0.000000 0.000000
vt 0.232925 0.000000
vt 0.447659 0.000000
vt 0.626892 0.000000
vt 0.743938 0.000000
vt 0.797567 0.000000
vt 0.899362 0.511245
vt 1.000000 0.000000
vt 1.000000 1.000000
vt 1.000000 0.514870
vt 0.232925 0.487240
vt 0.232925 0.000000
vt 0.232925 1.000000
vt 0.899928 1.000000
vt 0.899928 1.000000
vt 0.799856 1.000000
vt 0.799856 1.000000
vt 0.798724 0.507620
vt 0.798724 0.507620
vt 0.797567 0.000000
vt 0.797567 0.000000
vt 0.626891 0.501430
vt 0.626892 0.000000
vt 0.626892 1.000000
vt 0.447659 0.494974
vt 0.447659 0.000000
vt 0.447659 1.000000
vt 0.447659 0.000000
vt 0.232925 0.000000
vt 0.797567 0.000000
vt 0.626892 0.000000
vt 0.898784 0.000000
vt 0.898783 0.000000
vt 0.232925 0.000000
vt 0.626892 0.000000
vt 0.447659 0.000000
vt 0.743938 0.000000
vt 0.797567 0.000000
vt 0.797567 0.000000
vt 0.899928 1.000000
vt 1.000000 1.000000
vt 1.000000 1.000000
vt 0.447659 1.000000
vt 0.447659 1.000000
vt 0.626892 1.000000
vt 0.626892 1.000000
vt 0.232925 1.000000
vt 0.232925 1.000000
vt 0.799856 1.000000
vt 0.799856 1.000000
vt 0.000000 0.000000
vt 0.000000 0.000000
vt 0.000000 0.000000
vt 0.000000 0.000000
vt 0.000000 0.000000
vt 0.898783 0.000000
vt 1.000000 0.000000
vt 0.232925 1.000000
vt 0.447659 1.000000
vt 1.000000 1.000000
vt 1.000000 1.000000
vt 0.626892 1.000000
vt 0.799856 1.000000
vt 0.232925 1.000000
vt 0.447659 1.000000
vt 0.626892 1.000000
vt 0.799856 1.000000
vt 1.000000 1.000000
vt 1.000000 1.000000
vt 0.232925 0.000000
vt 0.626892 0.000000
vt 0.447659 0.000000
vt 0.743938 0.000000
vt 0.797567 0.000000
vt 0.899362 0.511245
vt 1.000000 0.000000
vt 1.000000 1.000000
vt 1.000000 0.514870
vn -0.1924 0.9617 -0.1954
vn -0.2643 0.9495 0.1692
vn -0.7089 -0.5244 0.4717
vn -0.0461 0.9950 -0.0889
vn -0.5125 0.8514 -0.1119
vn -0.5226 0.8452 0.1114
vn -0.2112 0.9607 -0.1800
vn -0.2668 0.9485 0.1708
vn -0.1304 0.9728 -0.1916
vn -0.1519 0.9725 0.1767
vn 0.1025 0.9821 0.1583
vn 0.1116 0.9811 0.1581
vn -0.1292 0.9882 0.0817
vn -0.9189 0.3907 -0.0541
vn 0.1024 0.9821 0.1583
vn -0.5765 0.0000 -0.8171
vn -0.5434 0.0000 -0.8395
vn -0.7573 0.0461 -0.6515
vn -0.7375 0.1096 -0.6664
vn -0.7702 -0.4955 0.4015
vn -0.5597 -0.5906 0.5813
vn -0.5543 -0.5908 0.5862
vn -0.6682 -0.3652 0.6482
vn -0.5827 -0.5992 0.5490
vn -0.0756 -0.9969 0.0197
vn -0.1539 0.9840 0.0897
vn -0.0509 -0.9985 -0.0196
vn -0.2439 -0.5922 -0.7680
vn -0.1348 -0.9859 0.0988
vn -0.0821 -0.9816 0.1724
vn -0.0370 -0.9991 0.0220
vn -0.0915 -0.9775 0.1899
vn -0.8372 -0.5431 0.0642
vn 0.3897 -0.9202 -0.0375
vn 0.0002 -0.9994 -0.0334
vn -0.9478 -0.3187 -0.0088
vn 0.0037 -0.9998 -0.0203
vn 0.2617 -0.9337 -0.2442
vn -0.1666 -0.8375 -0.5203
vn -0.8443 -0.4943 -0.2072
vn -0.1393 -0.8896 -0.4350
vn 0.1023 -0.9946 -0.0160
vn -0.2685 -0.4933 -0.8274
vn -0.1474 0.9650 0.2168
vn -0.3687 0.9076 -0.2007
vn -0.5484 -0.6188 0.5625
vn -0.5694 -0.5415 0.6185
vn -0.5853 -0.5236 0.6191
vn -0.5546 -0.5710 0.6053
vn -0.7810 -0.4995 0.3749
vn -0.9109 0.4122 -0.0165
vn -0.6699 -0.5897 0.4510
vn -0.4693 -0.3267 0.8204
vn -0.8530 0.1827 -0.4888
vn -0.3141 -0.9494 0.0000
vn 0.1932 0.9615 -0.1954
vn 0.2653 0.9492 0.1691
vn 0.7089 -0.5244 0.4717
vn 0.0461 0.9950 -0.0889
vn 0.5125 0.8514 -0.1119
vn 0.5226 0.8452 0.1114
vn 0.2112 0.9607 -0.1800
vn 0.2668 0.9485 0.1708
vn 0.1304 0.9728 -0.1916
vn 0.1519 0.9725 0.1767
vn -0.1025 0.9821 0.1583
vn -0.1120 0.9811 0.1581
vn 0.1292 0.9882 0.0817
vn 0.9189 0.3907 -0.0541
vn -0.1024 0.9821 0.1583
vn 0.5781 0.0000 -0.8160
vn 0.5434 0.0000 -0.8395
vn 0.7573 0.0461 -0.6515
vn 0.7375 0.1096 -0.6664
vn 0.7702 -0.4955 0.4015
vn 0.5597 -0.5906 0.5813
vn 0.5543 -0.5908 0.5862
vn 0.6696 -0.3644 0.6472
vn 0.5827 -0.5992 0.5490
vn 0.0756 -0.9969 0.0197
vn 0.1539 0.9840 0.0897
vn 0.0509 -0.9985 -0.0196
vn 0.2439 -0.5922 -0.7680
vn 0.1352 -0.9859 0.0988
vn 0.0821 -0.9816 0.1724
vn 0.0370 -0.9991 0.0220
vn 0.0915 -0.9775 0.1899
vn 0.8372 -0.5431 0.0642
vn -0.3908 -0.9197 -0.0375
vn -0.0002 -0.9994 -0.0334
vn 0.9478 -0.3187 -0.0088
vn -0.0037 -0.9998 -0.0203
vn -0.2627 -0.9335 -0.2441
vn 0.1666 -0.8375 -0.5203
vn 0.8443 -0.4943 -0.2072
vn 0.1393 -0.8896 -0.4350
vn -0.1023 -0.9946 -0.0160
vn 0.2685 -0.4933 -0.8274
vn 0.1474 0.9650 0.2168
vn 0.3687 0.9076 -0.2007
vn 0.5484 -0.6188 0.5625
vn 0.5710 -0.5405 0.6179
vn 0.5853 -0.5236 0.6191
vn 0.5546 -0.5710 0.6053
vn 0.7810 -0.4995 0.3749
vn 0.9109 0.4122 -0.0165
vn 0.6699 -0.5897 0.4510
vn 0.4693 -0.3267 0.8204
vn 0.8530 0.1827 -0.4888
vn 0.3141 -0.9494 0.0000
usemtl None
s off
f 1/1/1 15/2/1 14/3/1 4/4/1
f 4/4/2 14/3/2 13/5/2 27/6/2
f 51/7/3 29/8/3 38/9/3 37/10/3
f 7/11/4 6/12/4 35/13/4 39/14/4
f 9/15/5 8/16/5 6/12/5 7/11/5
f 30/17/6 9/15/6 7/11/6 29/8/6
f 11/18/7 12/19/7 8/16/7 9/15/7
f 10/20/8 11/18/8 9/15/8 30/17/8
f 14/3/9 15/2/9 12/19/9 11/18/9
f 13/5/10 14/3/10 11/18/10 10/20/10
f 12/19/11 15/2/11 21/21/11 20/22/11
f 15/2/12 1/1/12 16/23/12 21/21/12
f 6/12/13 8/16/13 19/24/13 18/25/13
f 50/26/14 6/12/14 18/25/14 52/27/14
f 8/16/15 12/19/15 20/22/15 19/24/15
f 21/21/16 16/23/16 22/28/16 26/29/16
f 19/24/17 20/22/17 25/30/17 24/31/17
f 20/22/17 21/21/17 26/29/17 25/30/17
f 18/25/18 19/24/18 24/31/18 23/32/18
f 23/32/19 17/33/19 52/34/19 18/25/19
f 51/7/20 3/35/20 28/36/20 53/37/20
f 55/38/21 57/39/21 33/40/21 31/41/21
f 54/42/22 55/38/22 31/41/22 32/43/22
f 56/44/23 54/42/23 32/43/23 34/45/23
f 57/39/24 53/46/24 28/47/24 33/40/24
f 5/48/25 3/49/25 37/50/25 36/51/25
f 29/8/26 7/11/26 39/14/26 38/9/26
f 2/52/27 5/48/27 36/51/27
f 50/26/28 2/53/28 36/54/28
f 34/45/29 32/43/29 44/55/29 43/56/29
f 32/43/30 31/41/30 41/57/30 44/55/30
f 28/36/31 3/35/31 5/58/31 40/59/31
f 31/41/32 33/40/32 42/60/32 41/57/32
f 33/40/33 28/47/33 40/61/33 42/60/33
f 43/56/34 44/55/34 49/62/34 48/63/34
f 44/55/35 41/57/35 46/64/35 49/62/35
f 42/60/36 40/61/36 45/65/36 47/66/36
f 40/59/37 5/58/37 2/67/37 45/68/37
f 41/57/35 42/60/35 47/66/35 46/64/35
f 26/29/38 22/28/38 48/69/38 49/70/38
f 24/31/39 25/30/39 46/71/39 47/72/39
f 23/32/40 24/31/40 47/72/40 45/73/40
f 25/30/41 26/29/41 49/70/41 46/71/41
f 17/33/42 23/32/42 45/73/42 2/74/42
f 6/12/43 50/26/43 36/54/43 35/13/43
f 38/9/44 39/14/44 58/75/44
f 39/14/45 35/13/45 58/75/45
f 30/17/46 29/8/46 53/46/46 57/39/46
f 27/6/47 13/5/47 54/42/47 56/44/47
f 13/5/48 10/20/48 55/38/48 54/42/48
f 10/20/49 30/17/49 57/39/49 55/38/49
f 29/8/50 51/7/50 53/37/50
f 2/53/51 50/26/51 52/27/51 17/76/51
f 3/35/52 51/7/52 37/77/52
f 58/75/53 37/10/53 38/9/53
f 58/75/54 35/13/54 36/54/54
f 37/77/55 58/75/55 36/78/55
f 1/1/56 4/4/56 70/79/56 71/80/56
f 4/4/57 27/6/57 69/81/57 70/79/57
f 101/82/58 89/83/58 90/84/58 82/85/58
f 63/86/59 91/87/59 87/88/59 62/89/59
f 65/90/60 63/86/60 62/89/60 64/91/60
f 81/92/61 82/85/61 63/86/61 65/90/61
f 67/93/62 65/90/62 64/91/62 68/94/62
f 66/95/63 81/92/63 65/90/63 67/93/63
f 70/79/64 67/93/64 68/94/64 71/80/64
f 69/81/65 66/95/65 67/93/65 70/79/65
f 68/94/66 75/96/66 76/97/66 71/80/66
f 71/80/67 76/97/67 16/23/67 1/1/67
f 62/89/68 73/98/68 74/99/68 64/91/68
f 100/100/69 102/101/69 73/98/69 62/89/69
f 64/91/70 74/99/70 75/96/70 68/94/70
f 76/97/71 80/102/71 22/28/71 16/23/71
f 74/99/72 78/103/72 79/104/72 75/96/72
f 75/96/72 79/104/72 80/102/72 76/97/72
f 73/98/73 77/105/73 78/103/73 74/99/73
f 77/105/74 73/98/74 102/106/74 72/107/74
f 101/82/75 103/108/75 83/109/75 60/110/75
f 105/111/76 84/112/76 86/113/76 106/114/76
f 104/115/77 85/116/77 84/112/77 105/111/77
f 56/44/78 34/45/78 85/116/78 104/115/78
f 106/114/79 86/113/79 83/117/79 103/118/79
f 61/119/80 88/120/80 89/121/80 60/122/80
f 82/85/81 90/84/81 91/87/81 63/86/81
f 59/123/82 88/120/82 61/119/82
f 100/100/83 88/124/83 59/125/83
f 34/45/84 43/56/84 95/126/84 85/116/84
f 85/116/85 95/126/85 93/127/85 84/112/85
f 83/109/86 92/128/86 61/129/86 60/110/86
f 84/112/87 93/127/87 94/130/87 86/113/87
f 86/113/88 94/130/88 92/131/88 83/117/88
f 43/56/89 48/63/89 98/132/89 95/126/89
f 95/126/90 98/132/90 97/133/90 93/127/90
f 94/130/91 99/134/91 96/135/91 92/131/91
f 92/128/92 96/136/92 59/137/92 61/129/92
f 93/127/90 97/133/90 99/134/90 94/130/90
f 80/102/93 98/138/93 48/69/93 22/28/93
f 78/103/94 99/139/94 97/140/94 79/104/94
f 77/105/95 96/141/95 99/139/95 78/103/95
f 79/104/96 97/140/96 98/138/96 80/102/96
f 72/107/97 59/142/97 96/141/97 77/105/97
f 62/89/98 87/88/98 88/124/98 100/100/98
f 90/84/99 107/143/99 91/87/99
f 91/87/100 107/143/100 87/88/100
f 81/92/101 106/114/101 103/118/101 82/85/101
f 27/6/102 56/44/102 104/115/102 69/81/102
f 69/81/103 104/115/103 105/111/103 66/95/103
f 66/95/104 105/111/104 106/114/104 81/92/104
f 82/85/105 103/108/105 101/82/105
f 59/125/106 72/144/106 102/101/106 100/100/106
f 60/110/107 89/145/107 101/82/107
f 107/143/108 90/84/108 89/83/108
f 107/143/109 88/124/109 87/88/109
f 89/145/110 88/146/110 107/143/110
