# Blender v2.81 (sub 16) OBJ File: 'weapon.blend'
# www.blender.org
mtllib missile.mtl
g Missile
v -0.000005 0.190824 -0.517658
v -0.000005 0.273079 0.454598
v 0.165437 0.095306 -0.517621
v 0.236340 0.136625 0.454652
v 0.165437 -0.095729 -0.517546
v 0.236340 -0.136283 0.454759
v -0.000005 -0.191247 -0.517508
v -0.000005 -0.272737 0.454813
v -0.165447 -0.095729 -0.517546
v -0.236350 -0.136283 0.454759
v -0.165447 0.095306 -0.517621
v -0.236350 0.136625 0.454652
v -0.000005 0.025791 0.714316
v 0.022094 0.013032 0.714321
v 0.022094 -0.012485 0.714331
v -0.000005 -0.025244 0.714336
v -0.022104 -0.012485 0.714331
v -0.022104 0.013032 0.714321
v -0.000005 0.191114 0.219295
v 0.165437 0.095596 0.219333
v 0.165437 -0.095439 0.219408
v -0.000005 -0.190957 0.219446
v -0.165447 -0.095439 0.219408
v -0.165447 0.095596 0.219333
v -0.000005 0.241949 -0.667153
v 0.209763 0.120839 -0.667105
v 0.209763 -0.121380 -0.667010
v -0.000005 -0.242490 -0.666962
v -0.209774 -0.121380 -0.667010
v -0.209774 0.120839 -0.667105
vt 0.601695 0.386152
vt 0.475585 0.454248
vt 0.424707 0.305747
vt 0.566080 0.282201
vt 0.424707 0.148773
vt 0.566080 0.172319
vt 0.475585 0.000273
vt 0.601695 0.068369
vt 0.602240 0.068369
vt 0.728350 0.000273
vt 0.779227 0.148773
vt 0.637854 0.172319
vt 0.454353 0.799753
vt 0.424707 0.645604
vt 0.628273 0.678906
vt 0.631045 0.693320
vt 0.779227 0.305747
vt 0.637854 0.282201
vt 0.728350 0.454248
vt 0.602240 0.386152
vt 0.999727 0.497409
vt 0.964600 0.601525
vt 0.874923 0.586805
vt 0.919462 0.454793
vt 0.874378 0.799753
vt 0.727037 0.745609
vt 0.860601 0.588418
vt 0.874378 0.593481
vt 0.869449 0.147005
vt 0.869449 0.256886
vt 0.779772 0.271607
vt 0.779772 0.132284
vt 0.268644 0.682671
vt 0.255933 0.690010
vt 0.255933 0.660655
vt 0.268644 0.667994
vt 0.255388 0.660655
vt 0.255388 0.690010
vt 0.242677 0.682671
vt 0.242677 0.667994
vt 0.501929 0.508938
vt 0.649270 0.454793
vt 0.649270 0.661065
vt 0.635494 0.666128
vt 0.649815 0.608943
vt 0.853381 0.575640
vt 0.679461 0.454793
vt 0.856153 0.561226
vt 0.424162 0.440346
vt 0.000273 0.440346
vt 0.000273 0.330464
vt 0.424162 0.330464
vt 0.424162 0.550228
vt 0.000273 0.550228
vt 0.424162 0.660110
vt 0.000273 0.660110
vt 0.424162 0.110155
vt 0.000273 0.110155
vt 0.000273 0.000273
vt 0.424162 0.000273
vt 0.424162 0.220037
vt 0.000273 0.220037
vt 0.424162 0.329919
vt 0.000273 0.329919
vt 0.120930 0.660655
vt 0.120930 0.939300
vt 0.000273 0.869639
vt 0.000273 0.730317
vt 0.242132 0.660655
vt 0.242132 0.939300
vt 0.121475 0.869639
vt 0.121475 0.730317
vt 0.964600 0.711407
vt 0.999727 0.815523
vt 0.919462 0.858139
vt 0.874923 0.726127
vt 0.904577 0.361003
vt 0.824311 0.403619
vt 0.904577 0.042889
vt 0.824311 0.000273
vn 0.4787 0.8291 -0.2888
vn 0.9575 -0.0001 -0.2885
vn 0.4787 -0.8293 -0.2882
vn -0.4787 -0.8293 -0.2882
vn -0.3856 0.6682 0.6362
vn -0.9575 -0.0001 -0.2885
vn -0.4787 0.8291 -0.2888
vn 0.4794 0.8304 0.2840
vn 0.3856 -0.6677 0.6368
vn -0.9587 0.0001 0.2843
vn 0.0000 0.0004 1.0000
vn -0.3856 -0.6677 0.6368
vn 0.7713 0.0003 0.6365
vn -0.7713 0.0003 0.6365
vn 0.3856 0.6682 0.6362
vn -0.5000 0.8660 -0.0003
vn -1.0000 -0.0000 0.0000
vn -0.5000 -0.8660 0.0003
vn 0.5000 -0.8660 0.0003
vn 1.0000 -0.0000 0.0000
vn 0.5000 0.8660 -0.0003
vn 0.0000 -0.0004 -1.0000
vn 0.4794 -0.8302 0.2846
vn -0.4794 0.8304 0.2840
vn -0.4794 -0.8302 0.2846
vn 0.9587 0.0001 0.2843
g Missile_Missile_Material
usemtl Material
s off
f 19/1/1 2/2/1 4/3/1 20/4/1
f 20/4/2 4/3/2 6/5/2 21/6/2
f 21/6/3 6/5/3 8/7/3 22/8/3
f 22/9/4 8/10/4 10/11/4 23/12/4
f 2/13/5 12/14/5 18/15/5 13/16/5
f 23/12/6 10/11/6 12/17/6 24/18/6
f 24/18/7 12/17/7 2/19/7 19/20/7
f 1/21/8 3/22/8 26/23/8 25/24/8
f 8/25/9 6/26/9 15/27/9 16/28/9
f 9/29/10 11/30/10 30/31/10 29/32/10
f 14/33/11 13/34/11 16/35/11 15/36/11
f 16/37/11 13/38/11 18/39/11 17/40/11
f 10/41/12 8/42/12 16/43/12 17/44/12
f 6/26/13 4/45/13 14/46/13 15/27/13
f 12/14/14 10/41/14 17/44/14 18/15/14
f 4/45/15 2/47/15 13/48/15 14/46/15
f 11/49/16 24/50/16 19/51/16 1/52/16
f 9/53/17 23/54/17 24/50/17 11/49/17
f 7/55/18 22/56/18 23/54/18 9/53/18
f 5/57/19 21/58/19 22/59/19 7/60/19
f 3/61/20 20/62/20 21/58/20 5/57/20
f 1/63/21 19/64/21 20/62/21 3/61/21
f 25/65/22 28/66/22 29/67/22 30/68/22
f 28/69/22 25/70/22 26/71/22 27/72/22
f 5/73/23 7/74/23 28/75/23 27/76/23
f 11/30/24 1/77/24 25/78/24 30/31/24
f 7/79/25 9/29/25 29/32/25 28/80/25
f 3/22/26 5/73/26 27/76/26 26/23/26
