# Blender v2.81 (sub 16) OBJ File: 'Spaceship.blend'
# www.blender.org
mtllib PlasmaRifle.mtl
o Plasma_Gun_Cylinder
v 0.000000 -0.000017 1.219747
v 0.000000 0.343921 1.277923
v -0.131620 0.317741 1.277923
v -0.243201 0.243184 1.277923
v -0.317758 0.131602 1.277923
v -0.343939 -0.000017 1.277923
v -0.317758 -0.131637 1.277923
v -0.243201 -0.243219 1.277923
v -0.131620 -0.317775 1.277923
v -0.000000 -0.343956 1.277923
v 0.131620 -0.317775 1.277923
v 0.243201 -0.243219 1.277923
v 0.317758 -0.131637 1.277923
v 0.343939 -0.000017 1.277923
v 0.317758 0.131602 1.277923
v 0.243201 0.243184 1.277923
v 0.282843 0.282825 -1.500000
v 0.131620 0.317741 1.277923
v 0.153073 0.369534 -1.500000
v 0.000000 0.343921 0.091650
v -0.131620 0.317741 0.091650
v -0.243201 0.243184 0.091650
v -0.317758 0.131602 0.091650
v -0.343939 -0.000017 0.091650
v -0.317758 -0.131637 0.091650
v -0.243201 -0.243219 0.091650
v -0.131620 -0.317775 0.091650
v -0.000000 -0.343956 0.091650
v 0.131620 -0.317775 0.091650
v 0.243201 -0.243219 0.091650
v 0.317758 -0.131637 0.091650
v 0.343939 -0.000017 0.091650
v 0.317758 0.131602 0.091650
v 0.243201 0.243184 0.091650
v 0.131620 0.317741 0.091650
v 0.000000 0.616233 -1.480920
v -0.400000 -0.000018 -1.500000
v -0.369552 -0.153091 -1.500000
v -0.282843 -0.282860 -1.500000
v -0.153073 -0.369569 -1.500000
v 0.153073 -0.369569 -1.500000
v 0.000000 0.399982 -1.500000
v -0.369552 0.153056 -1.500000
v 0.400000 -0.000018 -1.500000
v -0.282843 0.282825 -1.500000
v -0.000000 -0.400018 -1.500000
v -0.153073 0.369534 -1.500000
v 0.282843 -0.282860 -1.500000
v 0.369552 -0.153091 -1.500000
v -0.235829 0.569324 -1.480920
v -0.435755 0.435737 -1.480920
v -0.569341 0.235811 -1.480920
v -0.616251 -0.000018 -1.480920
v -0.569341 -0.235847 -1.480920
v -0.435755 -0.435773 -1.480920
v -0.235829 -0.569359 -1.480920
v -0.000000 -0.616268 -1.480920
v 0.235829 -0.569359 -1.480920
v 0.435755 -0.435773 -1.480920
v 0.569341 -0.235847 -1.480920
v 0.616251 -0.000018 -1.480920
v 0.569341 0.235811 -1.480920
v 0.435755 0.435738 -1.480920
v 0.235829 0.569324 -1.480920
v 0.000000 0.616233 0.139626
v -0.235829 0.569324 0.139626
v -0.435755 0.435738 0.139626
v -0.569341 0.235811 0.139626
v -0.616251 -0.000018 0.139626
v -0.569341 -0.235847 0.139626
v -0.435755 -0.435773 0.139626
v -0.235829 -0.569359 0.139626
v -0.000000 -0.616268 0.139626
v 0.235829 -0.569359 0.139626
v 0.435755 -0.435773 0.139626
v 0.569341 -0.235847 0.139626
v 0.616251 -0.000018 0.139626
v 0.569341 0.235812 0.139626
v 0.435755 0.435738 0.139626
v 0.235829 0.569324 0.139626
v 0.369552 0.153056 -1.500000
v -0.024626 0.034939 -1.500000
vt 0.750000 0.250000
vt 0.750000 0.490000
vt 0.841844 0.471731
vt 0.919706 0.419706
vt 0.971731 0.341844
vt 0.990000 0.250000
vt 0.971731 0.158156
vt 0.919706 0.080294
vt 0.841844 0.028269
vt 0.750000 0.010000
vt 0.658156 0.028269
vt 0.580294 0.080294
vt 0.528269 0.158156
vt 0.510000 0.250000
vt 0.528269 0.341844
vt 0.580294 0.419706
vt 0.658156 0.471731
vt 0.062500 0.500000
vt 0.062500 0.750000
vt 0.000000 0.750000
vt 0.000000 0.500000
vt 0.125000 0.500000
vt 0.125000 0.750000
vt 0.187500 0.500000
vt 0.187500 0.750000
vt 0.250000 0.500000
vt 0.250000 0.750000
vt 0.312500 0.500000
vt 0.312500 0.750000
vt 0.375000 0.500000
vt 0.375000 0.750000
vt 0.437500 0.500000
vt 0.437500 0.750000
vt 0.500000 0.500000
vt 0.500000 0.750000
vt 0.562500 0.500000
vt 0.562500 0.750000
vt 0.625000 0.500000
vt 0.625000 0.750000
vt 0.687500 0.500000
vt 0.687500 0.750000
vt 0.750000 0.500000
vt 0.750000 0.750000
vt 0.812500 0.500000
vt 0.812500 0.750000
vt 0.875000 0.500000
vt 0.875000 0.750000
vt 0.937500 0.500000
vt 0.937500 0.750000
vt 1.000000 0.500000
vt 1.000000 0.750000
vt 0.875000 0.750000
vt 0.812500 0.750000
vt 0.750000 0.750000
vt 0.028269 0.158156
vt 0.028269 0.158156
vt 0.080294 0.080294
vt 0.080294 0.080294
vt 0.419706 0.419706
vt 0.471731 0.341844
vt 0.471731 0.341844
vt 0.419706 0.419706
vt 0.490000 0.250000
vt 0.490000 0.250000
vt 0.687500 0.750000
vt 0.158156 0.471731
vt 0.250000 0.490000
vt 0.250000 0.490000
vt 0.158156 0.471731
vt 0.341844 0.471731
vt 0.341844 0.471731
vt 0.625000 0.750000
vt 0.158156 0.028269
vt 0.158156 0.028269
vt 0.562500 0.750000
vt 0.028269 0.341844
vt 0.080294 0.419706
vt 0.080294 0.419706
vt 0.028269 0.341844
vt 0.500000 0.750000
vt 0.250000 0.010000
vt 0.250000 0.010000
vt 0.437500 0.750000
vt 0.010000 0.250000
vt 0.010000 0.250000
vt 0.375000 0.750000
vt 0.341844 0.028269
vt 0.341844 0.028269
vt 0.312500 0.750000
vt 0.250000 0.750000
vt 1.000000 0.750000
vt 1.000000 1.000000
vt 0.937500 1.000000
vt 0.937500 0.750000
vt 0.875000 1.000000
vt 0.812500 1.000000
vt 0.750000 1.000000
vt 0.687500 1.000000
vt 0.625000 1.000000
vt 0.562500 1.000000
vt 0.500000 1.000000
vt 0.437500 1.000000
vt 0.375000 1.000000
vt 0.312500 1.000000
vt 0.250000 1.000000
vt 0.187500 1.000000
vt 0.187500 0.750000
vt 0.125000 1.000000
vt 0.125000 0.750000
vt 0.062500 1.000000
vt 0.062500 0.750000
vt 0.000000 1.000000
vt 0.000000 0.750000
vt 0.471731 0.158156
vt 0.471731 0.158156
vt 0.419706 0.080294
vt 0.419706 0.080294
vt 0.250000 0.490000
vt 0.419706 0.419706
vt 0.250000 0.010000
vt 0.341844 0.471731
vt 0.158156 0.028269
vt 0.471731 0.341844
vt 0.080294 0.080294
vt 0.010000 0.250000
vt 0.490000 0.250000
vt 0.419706 0.080294
vt 0.080294 0.419706
vt 0.341844 0.028269
vn 0.0332 -0.1667 0.9855
vn 0.0944 -0.1413 0.9855
vn 0.1413 -0.0944 0.9855
vn 0.1667 -0.0332 0.9855
vn 0.1667 0.0332 0.9855
vn 0.1413 0.0944 0.9855
vn 0.0944 0.1413 0.9855
vn 0.0332 0.1667 0.9855
vn -0.0332 0.1667 0.9855
vn -0.0944 0.1413 0.9855
vn -0.1413 0.0944 0.9855
vn -0.1667 0.0332 0.9855
vn -0.1667 -0.0332 0.9855
vn -0.1413 -0.0944 0.9855
vn -0.0944 -0.1413 0.9855
vn -0.0332 -0.1667 0.9855
vn 0.1951 0.9808 -0.0000
vn 0.5556 0.8315 -0.0000
vn 0.8315 0.5556 -0.0000
vn 0.9808 0.1951 -0.0000
vn 0.9808 -0.1951 0.0000
vn 0.8315 -0.5556 0.0000
vn 0.5556 -0.8315 0.0000
vn 0.1951 -0.9808 0.0000
vn -0.1951 -0.9808 0.0000
vn -0.5556 -0.8315 0.0000
vn -0.8315 -0.5556 0.0000
vn -0.9808 -0.1951 0.0000
vn -0.9808 0.1951 -0.0000
vn -0.8315 0.5556 -0.0000
vn -0.5556 0.8315 -0.0000
vn -0.1951 0.9808 -0.0000
vn 0.1470 -0.0982 0.9842
vn 0.1734 -0.0345 0.9842
vn 0.0745 -0.0498 -0.9960
vn -0.0745 0.0498 -0.9960
vn -0.0879 0.0175 -0.9960
vn 0.1734 0.0345 0.9842
vn 0.0175 0.0879 -0.9960
vn -0.0498 0.0745 -0.9960
vn 0.1470 0.0982 0.9842
vn 0.0498 -0.0745 -0.9960
vn 0.0982 0.1470 0.9842
vn 0.0745 0.0498 -0.9960
vn -0.0175 0.0879 -0.9960
vn 0.0345 0.1734 0.9842
vn 0.0175 -0.0879 -0.9960
vn -0.0345 0.1734 0.9842
vn 0.0879 -0.0175 -0.9960
vn 0.0498 0.0745 -0.9960
vn -0.0982 0.1470 0.9842
vn -0.0175 -0.0879 -0.9960
vn -0.1470 0.0982 0.9842
vn -0.1734 0.0345 0.9842
vn -0.0879 -0.0175 -0.9960
vn -0.0345 -0.1734 0.9842
vn 0.0982 -0.1470 0.9842
vn -0.0745 -0.0498 -0.9960
vn -0.0982 -0.1470 0.9842
vn 0.0345 -0.1734 0.9842
vn -0.0498 -0.0745 -0.9960
vn -0.1470 -0.0982 0.9842
vn 0.0879 0.0175 -0.9960
vn -0.1734 -0.0345 0.9842
vn 0.0000 0.0000 -1.0000
usemtl None
s off
f 1/1/1 2/2/1 3/3/1
f 1/1/2 3/3/2 4/4/2
f 1/1/3 4/4/3 5/5/3
f 1/1/4 5/5/4 6/6/4
f 1/1/5 6/6/5 7/7/5
f 1/1/6 7/7/6 8/8/6
f 1/1/7 8/8/7 9/9/7
f 1/1/8 9/9/8 10/10/8
f 1/1/9 10/10/9 11/11/9
f 1/1/10 11/11/10 12/12/10
f 1/1/11 12/12/11 13/13/11
f 1/1/12 13/13/12 14/14/12
f 1/1/13 14/14/13 15/15/13
f 1/1/14 15/15/14 16/16/14
f 1/1/15 16/16/15 18/17/15
f 1/1/16 18/17/16 2/2/16
f 18/18/17 35/19/17 20/20/17 2/21/17
f 16/22/18 34/23/18 35/19/18 18/18/18
f 15/24/19 33/25/19 34/23/19 16/22/19
f 14/26/20 32/27/20 33/25/20 15/24/20
f 13/28/21 31/29/21 32/27/21 14/26/21
f 12/30/22 30/31/22 31/29/22 13/28/22
f 11/32/23 29/33/23 30/31/23 12/30/23
f 10/34/24 28/35/24 29/33/24 11/32/24
f 9/36/25 27/37/25 28/35/25 10/34/25
f 8/38/26 26/39/26 27/37/26 9/36/26
f 7/40/27 25/41/27 26/39/27 8/38/27
f 6/42/28 24/43/28 25/41/28 7/40/28
f 5/44/29 23/45/29 24/43/29 6/42/29
f 4/46/30 22/47/30 23/45/30 5/44/30
f 3/48/31 21/49/31 22/47/31 4/46/31
f 2/50/32 20/51/32 21/49/32 3/48/32
f 23/45/33 22/47/33 67/52/33 68/53/33
f 24/43/34 23/45/34 68/53/34 69/54/34
f 49/55/35 60/56/35 59/57/35 48/58/35
f 45/59/36 43/60/36 52/61/36 51/62/36
f 37/63/37 53/64/37 52/61/37 43/60/37
f 25/41/38 24/43/38 69/54/38 70/65/38
f 19/66/39 42/67/39 36/68/39 64/69/39
f 47/70/40 45/59/40 51/62/40 50/71/40
f 26/39/41 25/41/41 70/65/41 71/72/41
f 48/58/42 59/57/42 58/73/42 41/74/42
f 27/37/43 26/39/43 71/72/43 72/75/43
f 81/76/44 17/77/44 63/78/44 62/79/44
f 42/67/45 47/70/45 50/71/45 36/68/45
f 28/35/46 27/37/46 72/75/46 73/80/46
f 41/74/47 58/73/47 57/81/47 46/82/47
f 29/33/48 28/35/48 73/80/48 74/83/48
f 49/55/49 44/84/49 61/85/49 60/56/49
f 19/66/50 64/69/50 63/78/50 17/77/50
f 30/31/51 29/33/51 74/83/51 75/86/51
f 46/82/52 57/81/52 56/87/52 40/88/52
f 31/29/53 30/31/53 75/86/53 76/89/53
f 32/27/54 31/29/54 76/89/54 77/90/54
f 65/91/32 36/92/32 50/93/32 66/94/32
f 66/94/31 50/93/31 51/95/31 67/52/31
f 67/52/30 51/95/30 52/96/30 68/53/30
f 68/53/29 52/96/29 53/97/29 69/54/29
f 69/54/28 53/97/28 54/98/28 70/65/28
f 70/65/27 54/98/27 55/99/27 71/72/27
f 71/72/26 55/99/26 56/100/26 72/75/26
f 72/75/25 56/100/25 57/101/25 73/80/25
f 73/80/24 57/101/24 58/102/24 74/83/24
f 74/83/23 58/102/23 59/103/23 75/86/23
f 75/86/22 59/103/22 60/104/22 76/89/22
f 76/89/21 60/104/21 61/105/21 77/90/21
f 77/90/20 61/105/20 62/106/20 78/107/20
f 78/107/19 62/106/19 63/108/19 79/109/19
f 79/109/18 63/108/18 64/110/18 80/111/18
f 80/111/17 64/110/17 36/112/17 65/113/17
f 38/114/55 54/115/55 53/64/55 37/63/55
f 20/20/56 35/19/56 80/111/56 65/113/56
f 22/47/57 21/49/57 66/94/57 67/52/57
f 38/114/58 39/116/58 55/117/58 54/115/58
f 35/19/59 34/23/59 79/109/59 80/111/59
f 21/49/60 20/51/60 65/91/60 66/94/60
f 39/116/61 40/88/61 56/87/61 55/117/61
f 34/23/62 33/25/62 78/107/62 79/109/62
f 81/76/63 62/79/63 61/85/63 44/84/63
f 33/25/64 32/27/64 77/90/64 78/107/64
f 42/67/65 19/66/65 82/118/65
f 45/59/65 47/70/65 82/119/65
f 46/82/65 82/120/65 41/74/65
f 47/70/65 42/67/65 82/121/65
f 41/74/65 82/122/65 48/58/65
f 43/60/65 45/59/65 82/123/65
f 48/58/65 82/124/65 49/55/65
f 43/60/65 82/123/65 37/63/65
f 44/84/65 49/55/65 82/125/65
f 37/63/65 82/126/65 38/114/65
f 44/84/65 82/125/65 81/76/65
f 39/116/65 38/114/65 82/127/65
f 17/77/65 81/76/65 82/128/65
f 40/88/65 39/116/65 82/129/65
f 17/77/65 82/128/65 19/66/65
f 40/88/65 82/129/65 46/82/65
