# Blender v2.81 (sub 16) OBJ File: 'Spaceship.blend'
# www.blender.org
mtllib Ram.mtl
o Ram_Cylinder.003
v -0.000147 -0.000018 3.582353
v -0.000147 0.343921 3.449565
v -0.124685 0.243184 3.449565
v -0.162864 0.131602 3.449565
v -0.176270 -0.000018 3.449565
v -0.162864 -0.131637 3.449565
v -0.124685 -0.243219 3.449565
v -0.000147 -0.343956 3.449565
v 0.124391 -0.243219 3.449565
v 0.162570 -0.131637 3.449565
v 0.175977 -0.000018 3.449565
v 0.162570 0.131602 3.449565
v 0.124391 0.243184 3.449565
v 0.144691 0.282825 -1.500000
v 0.078239 0.369534 -1.500000
v -0.000147 0.343921 1.616236
v -0.124685 0.243184 1.616236
v -0.162864 0.131602 1.616236
v -0.176270 -0.000018 1.616236
v -0.162864 -0.131637 1.616236
v -0.124685 -0.243219 1.616236
v 0.067253 -0.317776 1.616236
v 0.162570 -0.131637 1.616236
v 0.175977 -0.000018 1.616236
v 0.162570 0.131602 1.616236
v 0.124391 0.243184 1.616236
v -0.000147 0.616233 -1.480920
v -0.204978 -0.000018 -1.500000
v -0.189386 -0.153091 -1.500000
v -0.144984 -0.282860 -1.500000
v -0.078532 -0.369569 -1.500000
v 0.078239 -0.369569 -1.500000
v -0.189386 0.153056 -1.500000
v 0.204684 -0.000018 -1.500000
v -0.144984 0.282825 -1.500000
v -0.078532 0.369534 -1.500000
v 0.144691 -0.282860 -1.500000
v 0.189092 -0.153091 -1.500000
v -0.120910 0.569324 -1.480920
v -0.223287 0.435737 -1.480920
v -0.291694 0.235811 -1.480920
v -0.315715 -0.000018 -1.480920
v -0.291694 -0.235847 -1.480920
v -0.223287 -0.435773 -1.480920
v -0.120910 -0.569359 -1.480920
v -0.000147 -0.616268 -1.480920
v 0.120616 -0.569359 -1.480920
v 0.222994 -0.435773 -1.480920
v 0.291400 -0.235847 -1.480920
v 0.315421 -0.000018 -1.480920
v 0.291400 0.235811 -1.480920
v 0.222994 0.435738 -1.480920
v 0.120616 0.569324 -1.480920
v -0.000147 0.616233 0.139626
v -0.120910 0.569324 0.139626
v -0.223287 0.435738 0.139626
v -0.291694 0.235811 0.139626
v -0.315715 -0.000018 0.139626
v -0.291694 -0.235847 0.139626
v -0.223287 -0.435773 0.139626
v -0.120910 -0.569359 0.139626
v -0.000147 -0.616268 0.139626
v 0.120616 -0.569359 0.139626
v 0.222994 -0.435773 0.139626
v 0.291400 -0.235847 0.139626
v 0.315421 -0.000018 0.139626
v 0.291400 0.235812 0.139626
v 0.222994 0.435738 0.139626
v 0.120616 0.569324 0.139626
v 0.189092 0.153056 -1.500000
v -0.012757 0.034939 -1.500000
vt 0.750000 0.250000
vt 0.841844 0.471731
vt 0.919706 0.419706
vt 0.971731 0.341844
vt 0.990000 0.250000
vt 0.971731 0.158156
vt 0.919706 0.080294
vt 0.841844 0.028269
vt 0.750000 0.010000
vt 0.658156 0.028269
vt 0.580294 0.080294
vt 0.528269 0.158156
vt 0.510000 0.250000
vt 0.528269 0.341844
vt 0.580294 0.419706
vt 0.658156 0.471731
vt 0.750000 0.490000
vt 0.062500 0.500000
vt 0.000000 0.750000
vt 0.000000 0.500000
vt 0.125000 0.500000
vt 0.125000 0.750000
vt 0.062500 0.750000
vt 0.187500 0.500000
vt 0.187500 0.750000
vt 0.250000 0.500000
vt 0.250000 0.750000
vt 0.312500 0.500000
vt 0.312500 0.750000
vt 0.375000 0.500000
vt 0.375000 0.750000
vt 0.500000 0.500000
vt 0.437500 0.750000
vt 0.437500 0.500000
vt 0.562500 0.500000
vt 0.562500 0.750000
vt 0.500000 0.750000
vt 0.625000 0.500000
vt 0.687500 0.500000
vt 0.687500 0.750000
vt 0.625000 0.750000
vt 0.750000 0.500000
vt 0.750000 0.750000
vt 0.812500 0.500000
vt 0.812500 0.750000
vt 0.875000 0.500000
vt 0.875000 0.750000
vt 0.937500 0.500000
vt 0.937500 0.750000
vt 0.875000 0.750000
vt 0.812500 0.750000
vt 0.750000 0.750000
vt 0.028269 0.158156
vt 0.028269 0.158156
vt 0.080294 0.080294
vt 0.080294 0.080294
vt 0.419706 0.419706
vt 0.471731 0.341844
vt 0.471731 0.341844
vt 0.419706 0.419706
vt 0.490000 0.250000
vt 0.490000 0.250000
vt 0.687500 0.750000
vt 0.250000 0.490000
vt 0.250000 0.490000
vt 0.158156 0.471731
vt 0.341844 0.471731
vt 0.341844 0.471731
vt 0.625000 0.750000
vt 0.158156 0.028269
vt 0.158156 0.028269
vt 0.562500 0.750000
vt 0.028269 0.341844
vt 0.080294 0.419706
vt 0.080294 0.419706
vt 0.028269 0.341844
vt 0.500000 0.750000
vt 0.250000 0.010000
vt 0.437500 0.750000
vt 0.010000 0.250000
vt 0.010000 0.250000
vt 0.158156 0.471731
vt 0.375000 0.750000
vt 0.250000 0.010000
vt 0.341844 0.028269
vt 0.341844 0.028269
vt 0.312500 0.750000
vt 0.250000 0.750000
vt 1.000000 0.750000
vt 1.000000 1.000000
vt 0.937500 1.000000
vt 0.937500 0.750000
vt 0.875000 1.000000
vt 0.812500 1.000000
vt 0.750000 1.000000
vt 0.687500 1.000000
vt 0.625000 1.000000
vt 0.562500 1.000000
vt 0.500000 1.000000
vt 0.437500 1.000000
vt 0.375000 1.000000
vt 0.312500 1.000000
vt 0.250000 1.000000
vt 0.187500 1.000000
vt 0.187500 0.750000
vt 0.125000 1.000000
vt 0.125000 0.750000
vt 0.062500 1.000000
vt 0.062500 0.750000
vt 0.000000 1.000000
vt 0.000000 0.750000
vt 0.471731 0.158156
vt 0.471731 0.158156
vt 0.419706 0.080294
vt 0.419706 0.080294
vt 1.000000 0.750000
vt 0.419706 0.419706
vt 0.341844 0.471731
vt 0.158156 0.028269
vt 0.471731 0.341844
vt 0.080294 0.080294
vt 0.010000 0.250000
vt 0.490000 0.250000
vt 0.419706 0.080294
vt 0.080294 0.419706
vt 0.341844 0.028269
vn -0.2797 0.3458 0.8957
vn -0.5296 0.1812 0.8286
vn -0.6009 0.0612 0.7970
vn -0.6009 -0.0612 0.7970
vn -0.5296 -0.1812 0.8286
vn -0.2797 -0.3458 0.8957
vn 0.2797 -0.3458 0.8957
vn 0.5296 -0.1812 0.8286
vn 0.6009 -0.0612 0.7970
vn 0.6009 0.0612 0.7970
vn 0.5296 0.1812 0.8286
vn 0.2797 0.3458 0.8957
vn 0.6289 0.7775 0.0000
vn 0.9461 0.3237 0.0000
vn 0.9949 0.1013 0.0000
vn 0.9949 -0.1013 -0.0000
vn 0.9125 -0.4091 -0.0059
vn 0.6289 -0.7774 0.0120
vn -0.3620 -0.9318 -0.0266
vn -0.6289 -0.7775 -0.0000
vn -0.9461 -0.3237 -0.0000
vn -0.9949 -0.1013 -0.0000
vn -0.9949 0.1013 0.0000
vn -0.9461 0.3237 0.0000
vn -0.6289 0.7775 0.0000
vn -0.9409 0.3220 0.1048
vn -0.9905 0.1009 0.0935
vn 0.1444 -0.0494 -0.9883
vn -0.1444 0.0494 -0.9883
vn -0.1698 0.0173 -0.9853
vn -0.9905 -0.1009 0.0935
vn 0.0341 0.0878 -0.9956
vn -0.0969 0.0742 -0.9925
vn -0.9409 -0.3220 0.1048
vn 0.0969 -0.0742 -0.9925
vn -0.7869 -0.6030 0.1312
vn 0.1444 0.0494 -0.9883
vn -0.0138 0.0814 -0.9966
vn -0.3547 -0.9132 0.2008
vn 0.0341 -0.0878 -0.9956
vn 0.3568 -0.9187 0.1694
vn 0.1698 -0.0173 -0.9853
vn 0.0969 0.0742 -0.9925
vn 0.7869 -0.6030 0.1312
vn -0.0138 -0.0814 -0.9966
vn 0.9143 -0.3877 0.1173
vn 0.9905 -0.1009 0.0935
vn -0.3621 0.9321 -0.0000
vn -0.7937 0.6083 -0.0000
vn -0.7937 -0.6083 0.0000
vn -0.3621 -0.9321 0.0000
vn 0.3621 -0.9321 0.0000
vn 0.7937 -0.6083 0.0000
vn 0.9461 -0.3237 0.0000
vn 0.7937 0.6083 -0.0000
vn 0.3621 0.9321 -0.0000
vn -0.1698 -0.0173 -0.9853
vn 0.3568 0.9187 0.1694
vn -0.7102 0.6878 0.1501
vn -0.1444 -0.0494 -0.9883
vn 0.7102 0.6878 0.1501
vn -0.3569 0.9187 0.1694
vn -0.0969 -0.0742 -0.9925
vn 0.9409 0.3220 0.1048
vn 0.1698 0.0173 -0.9853
vn 0.9905 0.1009 0.0935
vn 0.0000 0.0000 -1.0000
usemtl None
s off
f 1/1/1 2/2/1 3/3/1
f 1/1/2 3/3/2 4/4/2
f 1/1/3 4/4/3 5/5/3
f 1/1/4 5/5/4 6/6/4
f 1/1/5 6/6/5 7/7/5
f 1/1/6 7/7/6 8/8/6
f 1/1/7 8/9/7 9/10/7
f 1/1/8 9/11/8 10/12/8
f 1/1/9 10/12/9 11/13/9
f 1/1/10 11/13/10 12/14/10
f 1/1/11 12/14/11 13/15/11
f 1/1/12 13/16/12 2/17/12
f 13/18/13 16/19/13 2/20/13
f 13/21/13 26/22/13 16/23/13
f 12/24/14 25/25/14 26/22/14 13/21/14
f 11/26/15 24/27/15 25/25/15 12/24/15
f 10/28/16 23/29/16 24/27/16 11/26/16
f 9/30/17 22/31/17 23/29/17 10/28/17
f 8/32/18 22/33/18 9/34/18
f 8/35/19 21/36/19 22/37/19
f 7/38/20 21/36/20 8/35/20
f 6/39/21 20/40/21 21/41/21 7/38/21
f 5/42/22 19/43/22 20/40/22 6/39/22
f 4/44/23 18/45/23 19/43/23 5/42/23
f 3/46/24 17/47/24 18/45/24 4/44/24
f 2/48/25 16/49/25 17/47/25 3/46/25
f 18/45/26 17/47/26 56/50/26 57/51/26
f 19/43/27 18/45/27 57/51/27 58/52/27
f 38/53/28 49/54/28 48/55/28 37/56/28
f 35/57/29 33/58/29 41/59/29 40/60/29
f 28/61/30 42/62/30 41/59/30 33/58/30
f 20/40/31 19/43/31 58/52/31 59/63/31
f 15/64/32 27/65/32 53/66/32
f 36/67/33 35/57/33 40/60/33 39/68/33
f 21/41/34 20/40/34 59/63/34 60/69/34
f 37/56/35 48/55/35 47/70/35 32/71/35
f 21/41/36 60/69/36 61/72/36
f 70/73/37 14/74/37 52/75/37 51/76/37
f 15/64/38 36/67/38 39/68/38 27/65/38
f 22/37/39 21/36/39 61/72/39 62/77/39
f 32/71/40 47/70/40 46/78/40
f 22/37/41 62/77/41 63/79/41
f 38/53/42 34/80/42 50/81/42 49/54/42
f 15/82/43 53/66/43 52/75/43 14/74/43
f 22/33/44 63/79/44 64/83/44
f 32/84/45 46/78/45 45/85/45 31/86/45
f 23/29/46 22/31/46 64/83/46 65/87/46
f 24/27/47 23/29/47 65/87/47 66/88/47
f 54/89/48 27/90/48 39/91/48 55/92/48
f 55/92/49 39/91/49 40/93/49 56/50/49
f 56/50/24 40/93/24 41/94/24 57/51/24
f 57/51/23 41/94/23 42/95/23 58/52/23
f 58/52/22 42/95/22 43/96/22 59/63/22
f 59/63/21 43/96/21 44/97/21 60/69/21
f 60/69/50 44/97/50 45/98/50 61/72/50
f 61/72/51 45/98/51 46/99/51 62/77/51
f 62/77/52 46/99/52 47/100/52 63/79/52
f 63/79/53 47/100/53 48/101/53 64/83/53
f 64/83/54 48/101/54 49/102/54 65/87/54
f 65/87/16 49/102/16 50/103/16 66/88/16
f 66/88/15 50/103/15 51/104/15 67/105/15
f 67/105/14 51/104/14 52/106/14 68/107/14
f 68/107/55 52/106/55 53/108/55 69/109/55
f 69/109/56 53/108/56 27/110/56 54/111/56
f 29/112/57 43/113/57 42/62/57 28/61/57
f 16/23/58 69/109/58 54/111/58
f 17/47/59 16/49/59 55/92/59 56/50/59
f 29/112/60 30/114/60 44/115/60 43/113/60
f 16/23/61 26/22/61 68/107/61 69/109/61
f 16/116/62 54/89/62 55/92/62
f 30/114/63 31/86/63 45/85/63 44/115/63
f 26/22/64 25/25/64 67/105/64 68/107/64
f 70/73/65 51/76/65 50/81/65 34/80/65
f 25/25/66 24/27/66 66/88/66 67/105/66
f 35/57/67 36/67/67 71/117/67
f 36/67/67 15/64/67 71/118/67
f 32/71/67 71/119/67 37/56/67
f 33/58/67 35/57/67 71/120/67
f 37/56/67 71/121/67 38/53/67
f 33/58/67 71/120/67 28/61/67
f 34/80/67 38/53/67 71/122/67
f 28/61/67 71/123/67 29/112/67
f 34/80/67 71/122/67 70/73/67
f 30/114/67 29/112/67 71/124/67
f 14/74/67 70/73/67 71/125/67
f 31/86/67 30/114/67 71/126/67
f 14/74/67 71/125/67 15/82/67
f 31/86/67 71/126/67 32/84/67
