# Blender v2.81 (sub 16) OBJ File: 'weapon.blend'
# www.blender.org
mtllib rocketlauncher.mtl
g Rocket_Cylinder.001
v 0.000000 0.499606 -1.000197
v 0.000000 0.500394 0.999803
v 0.433013 0.249606 -1.000098
v 0.433013 0.250394 0.999902
v 0.433013 -0.250394 -0.999902
v 0.433013 -0.249606 1.000098
v -0.000000 -0.500394 -0.999803
v -0.000000 -0.499606 1.000197
v -0.433013 -0.250394 -0.999902
v -0.433013 -0.249606 1.000098
v -0.433013 0.249606 -1.000098
v -0.433013 0.250394 0.999902
v 0.000000 0.500394 0.999803
v 0.433013 0.250394 0.999902
v 0.433013 -0.249606 1.000098
v -0.000000 -0.499606 1.000197
v -0.433013 -0.249606 1.000098
v -0.433013 0.250394 0.999902
v -0.000000 0.397381 0.999844
v 0.343801 0.198887 0.999922
v 0.343801 -0.198100 1.000078
v -0.000000 -0.396594 1.000156
v -0.343801 -0.198100 1.000078
v -0.343801 0.198887 0.999922
v -0.000000 0.397031 0.109893
v 0.343801 0.198537 0.109971
v 0.343801 -0.198451 0.110127
v -0.000000 -0.396944 0.110205
v -0.343801 -0.198450 0.110127
v -0.343801 0.198537 0.109971
v -0.000000 0.362745 0.058237
v 0.314126 0.181384 0.058308
v 0.314126 -0.181338 0.058451
v -0.000000 -0.362699 0.058522
v -0.314126 -0.181338 0.058451
v -0.314126 0.181384 0.058308
v -0.000000 0.278517 1.089500
v 0.240831 0.139473 1.089555
v 0.240831 -0.138615 1.089664
v -0.000000 -0.277659 1.089719
v -0.240831 -0.138615 1.089664
v -0.240831 0.139473 1.089555
v -0.000000 0.033639 1.236344
v 0.028711 0.017063 1.236350
v 0.028711 -0.016090 1.236363
v -0.000000 -0.032666 1.236369
v -0.028711 -0.016090 1.236363
v -0.028711 0.017063 1.236350
vt 0.776174 0.887928
vt 0.331648 0.887928
vt 0.331648 0.776796
vt 0.776174 0.776796
vt 0.112077 0.664410
vt 0.112077 0.219884
vt 0.223209 0.219884
vt 0.223209 0.664410
vt 0.334967 0.000314
vt 0.334967 0.444839
vt 0.223836 0.444839
vt 0.223836 0.000314
vt 0.776174 0.776169
vt 0.331648 0.776169
vt 0.331648 0.665038
vt 0.776174 0.665038
vt 0.331648 0.888555
vt 0.331648 0.999686
vt 0.329708 0.999686
vt 0.329709 0.888555
vt 0.776174 0.999686
vt 0.776174 0.888555
vt 0.111450 0.000314
vt 0.111450 0.444858
vt 0.000314 0.444858
vt 0.000314 0.000314
vt 0.335595 0.446162
vt 0.335595 0.223551
vt 0.431988 0.279204
vt 0.431988 0.390509
vt 0.431988 0.000314
vt 0.431988 0.222924
vt 0.335595 0.167272
vt 0.335595 0.055966
vt 0.112077 0.217945
vt 0.223209 0.217945
vt 0.329709 0.665038
vt 0.329709 0.776169
vt 0.309880 0.764721
vt 0.309880 0.676485
vt 0.000331 0.446798
vt 0.111450 0.446798
vt 0.100003 0.466624
vt 0.011777 0.466624
vt 0.329709 0.887928
vt 0.329709 0.776796
vt 0.334967 0.446779
vt 0.223836 0.446779
vt 0.235284 0.466607
vt 0.323519 0.466607
vt 0.323519 0.664410
vt 0.235284 0.664410
vt 0.309880 0.900003
vt 0.309880 0.988238
vt 0.112077 0.988238
vt 0.112077 0.900003
vt 0.123525 0.198117
vt 0.211761 0.198117
vt 0.309880 0.876480
vt 0.309880 0.788244
vt 0.473663 0.325805
vt 0.473663 0.414179
vt 0.460398 0.410365
vt 0.460398 0.329619
vt 0.487554 0.325805
vt 0.487554 0.414179
vt 0.474290 0.410365
vt 0.474290 0.329619
vt 0.112077 0.876479
vt 0.112077 0.788244
vt 0.100004 0.664405
vt 0.011778 0.664406
vt 0.112077 0.764721
vt 0.112077 0.676485
vt 0.123525 0.000314
vt 0.211761 0.000314
vt 0.662757 0.081687
vt 0.662757 0.162432
vt 0.432615 0.153012
vt 0.432615 0.091107
vt 0.662757 0.000314
vt 0.662757 0.081059
vt 0.432615 0.071639
vt 0.432615 0.009734
vt 0.459771 0.325805
vt 0.459771 0.414179
vt 0.446507 0.410365
vt 0.446507 0.329619
vt 0.501446 0.325805
vt 0.501446 0.414179
vt 0.488181 0.410365
vt 0.488181 0.329619
vt 0.515337 0.325805
vt 0.515337 0.414179
vt 0.502073 0.410365
vt 0.502073 0.329619
vt 0.432615 0.414179
vt 0.432615 0.325805
vt 0.445879 0.329619
vt 0.445879 0.410365
vt 0.635901 0.477742
vt 0.689512 0.446789
vt 0.694611 0.510147
vt 0.688220 0.513837
vt 0.689512 0.588264
vt 0.635901 0.557312
vt 0.688220 0.521217
vt 0.694611 0.524907
vt 0.565736 0.528162
vt 0.565736 0.608908
vt 0.335595 0.599488
vt 0.335595 0.537582
vt 0.662757 0.244432
vt 0.662757 0.325178
vt 0.432615 0.315758
vt 0.432615 0.253853
vt 0.662757 0.163060
vt 0.662757 0.243805
vt 0.432615 0.234385
vt 0.432615 0.172480
vt 0.565736 0.446789
vt 0.565736 0.527535
vt 0.335595 0.518115
vt 0.335595 0.456209
vt 0.572755 0.521217
vt 0.566364 0.524907
vt 0.566364 0.510147
vt 0.572755 0.513837
vt 0.630174 0.486574
vt 0.630174 0.548479
vt 0.630801 0.548479
vt 0.630801 0.486574
vt 0.571463 0.446789
vt 0.625075 0.477742
vt 0.625074 0.557311
vt 0.571463 0.588264
vn 0.5000 0.8660 -0.0003
vn 1.0000 -0.0000 0.0000
vn 0.5000 -0.8660 0.0003
vn -0.5000 -0.8660 0.0003
vn 0.0000 0.0000 1.0000
vn -1.0000 0.0000 0.0000
vn -0.5000 0.8660 -0.0003
vn 0.0000 -0.0004 -1.0000
vn 0.0000 0.0004 1.0000
vn 0.4336 0.7512 0.4977
vn 0.4336 -0.7508 0.4983
vn 0.4987 -0.8638 0.0712
vn -0.9975 0.0000 0.0709
vn -0.8672 0.0002 0.4980
vn 0.8672 0.0002 0.4980
vn -0.4336 0.7512 0.4977
vn -0.4336 -0.7508 0.4983
vn -0.2845 -0.4924 0.8226
vn -0.2845 0.4930 0.8222
vn 0.4987 0.8639 0.0706
vn -0.4987 0.8639 0.0706
vn -0.4987 -0.8638 0.0712
vn 0.9975 0.0000 0.0709
vn 0.5689 0.0003 0.8224
vn -0.5689 0.0003 0.8224
vn 0.2845 -0.4924 0.8226
vn 0.2845 0.4930 0.8222
usemtl Material.002
s off
f 1/1/1 2/2/1 4/3/1 3/4/1
f 3/5/2 4/6/2 6/7/2 5/8/2
f 5/9/3 6/10/3 8/11/3 7/12/3
f 7/13/4 8/14/4 10/15/4 9/16/4
f 12/17/5 10/18/5 17/19/5 18/20/5
f 9/21/6 10/18/6 12/17/6 11/22/6
f 11/23/7 12/24/7 2/25/7 1/26/7
f 1/27/8 7/28/8 9/29/8 11/30/8
f 7/31/8 1/32/8 3/33/8 5/34/8
f 6/7/5 4/6/5 14/35/5 15/36/5
f 17/37/9 16/38/9 22/39/9 23/40/9
f 13/41/9 18/42/9 24/43/9 19/44/9
f 4/3/5 2/2/5 13/45/5 14/46/5
f 8/11/5 6/10/5 15/47/5 16/48/5
f 2/25/5 12/24/5 18/42/5 13/41/5
f 10/15/5 8/14/5 16/38/5 17/37/5
f 22/49/7 21/50/7 27/51/7 28/52/7
f 24/53/2 23/54/2 29/55/2 30/56/2
f 15/36/9 14/35/9 20/57/9 21/58/9
f 18/20/9 17/19/9 23/54/9 24/53/9
f 16/48/9 15/47/9 21/50/9 22/49/9
f 14/46/9 13/45/9 19/59/9 20/60/9
f 29/61/10 28/62/10 34/63/10 35/64/10
f 25/65/11 30/66/11 36/67/11 31/68/11
f 20/60/4 19/59/4 25/69/4 26/70/4
f 19/44/3 24/43/3 30/71/3 25/72/3
f 23/40/1 22/39/1 28/73/1 29/74/1
f 21/58/6 20/57/6 26/75/6 27/76/6
f 34/77/12 33/78/12 39/79/12 40/80/12
f 36/81/13 35/82/13 41/83/13 42/84/13
f 27/85/14 26/86/14 32/87/14 33/88/14
f 30/89/15 29/90/15 35/91/15 36/92/15
f 28/93/16 27/94/16 33/95/16 34/96/16
f 26/97/17 25/98/17 31/99/17 32/100/17
f 41/101/18 40/102/18 46/103/18 47/104/18
f 37/105/19 42/106/19 48/107/19 43/108/19
f 32/109/20 31/110/20 37/111/20 38/112/20
f 31/113/21 36/114/21 42/115/21 37/116/21
f 35/117/22 34/118/22 40/119/22 41/120/22
f 33/121/23 32/122/23 38/123/23 39/124/23
f 44/125/9 43/126/9 46/127/9 45/128/9
f 46/103/9 43/108/9 48/107/9 47/104/9
f 39/129/24 38/130/24 44/125/24 45/128/24
f 42/131/25 41/132/25 47/104/25 48/107/25
f 40/133/26 39/134/26 45/128/26 46/127/26
f 38/135/27 37/136/27 43/126/27 44/125/27
