# Blender v2.81 (sub 16) OBJ File: 'StationMesh.blend'
# www.blender.org
mtllib StationRing.mtl
g StationRingSection_StationRing
v 26.987703 0.000000 0.000000
v 24.955475 -4.219967 0.000000
v 20.389097 -5.262213 0.000000
v 16.727146 -2.341905 0.000000
v 16.727146 2.341905 0.000000
v 20.389097 5.262213 0.000000
v 24.955475 4.219967 0.000000
v 24.933386 0.000000 -10.327745
v 23.055853 -4.219967 -9.550045
v 18.837070 -5.262213 -7.802568
v 15.453869 -2.341905 -6.401201
v 15.453869 2.341905 -6.401201
v 18.837070 5.262213 -7.802568
v 23.055853 4.219967 -9.550045
v 19.083185 0.000000 -19.083189
v 17.646183 -4.219967 -17.646185
v 14.417267 -5.262213 -14.417270
v 11.827877 -2.341905 -11.827880
v 11.827877 2.341905 -11.827880
v 14.417267 5.262213 -14.417270
v 17.646183 4.219967 -17.646185
v 10.327753 0.000000 -24.933384
v 9.550053 -4.219967 -23.055849
v 7.802574 -5.262213 -18.837069
v 6.401206 -2.341905 -15.453867
v 6.401206 2.341905 -15.453867
v 7.802574 5.262213 -18.837069
v 9.550053 4.219967 -23.055849
v 0.000002 0.000000 -26.987703
v 0.000002 -4.219967 -24.955475
v 0.000002 -5.262213 -20.389097
v 0.000001 -2.341905 -16.727146
v 0.000001 2.341905 -16.727146
v 0.000002 5.262213 -20.389097
v 0.000002 4.219967 -24.955475
v -10.327749 0.000000 -24.933386
v -9.550049 -4.219967 -23.055849
v -7.802572 -5.262213 -18.837069
v -6.401203 -2.341905 -15.453869
v -6.401203 2.341905 -15.453869
v -7.802572 5.262213 -18.837069
v -9.550049 4.219967 -23.055849
v -19.083193 0.000000 -19.083183
v -17.646189 -4.219967 -17.646181
v -14.417273 -5.262213 -14.417265
v -11.827881 -2.341905 -11.827876
v -11.827881 2.341905 -11.827876
v -14.417273 5.262213 -14.417265
v -17.646189 4.219967 -17.646181
v -24.933386 0.000000 -10.327748
v -23.055849 -4.219967 -9.550048
v -18.837069 -5.262213 -7.802571
v -15.453869 -2.341905 -6.401203
v -15.453869 2.341905 -6.401203
v -18.837069 5.262213 -7.802571
v -23.055849 4.219967 -9.550048
v -26.987703 0.000000 -0.000002
v -24.955475 -4.219967 -0.000002
v -20.389097 -5.262213 -0.000002
v -16.727146 -2.341905 -0.000001
v -16.727146 2.341905 -0.000001
v -20.389097 5.262213 -0.000002
v -24.955475 4.219967 -0.000002
v -24.933392 0.000000 10.327737
v -23.055855 -4.219967 9.550037
v -18.837072 -5.262213 7.802562
v -15.453871 -2.341905 6.401196
v -15.453871 2.341905 6.401196
v -18.837072 5.262213 7.802562
v -23.055855 4.219967 9.550037
v -19.083193 0.000000 19.083183
v -17.646189 -4.219967 17.646181
v -14.417273 -5.262213 14.417265
v -11.827881 -2.341905 11.827876
v -11.827881 2.341905 11.827876
v -14.417273 5.262213 14.417265
v -17.646189 4.219967 17.646181
v -10.327749 0.000000 24.933386
v -9.550049 -4.219967 23.055849
v -7.802572 -5.262213 18.837069
v -6.401203 -2.341905 15.453869
v -6.401203 2.341905 15.453869
v -7.802572 5.262213 18.837069
v -9.550049 4.219967 23.055849
v 0.000002 0.000000 26.987703
v 0.000002 -4.219967 24.955475
v 0.000002 -5.262213 20.389097
v 0.000001 -2.341905 16.727146
v 0.000001 2.341905 16.727146
v 0.000002 5.262213 20.389097
v 0.000002 4.219967 24.955475
v 10.327753 0.000000 24.933384
v 9.550053 -4.219967 23.055849
v 7.802574 -5.262213 18.837069
v 6.401206 -2.341905 15.453867
v 6.401206 2.341905 15.453867
v 7.802574 5.262213 18.837069
v 9.550053 4.219967 23.055849
v 19.083178 0.000000 19.083199
v 17.646175 -4.219967 17.646194
v 14.417261 -5.262213 14.417277
v 11.827872 -2.341905 11.827885
v 11.827872 2.341905 11.827885
v 14.417261 5.262213 14.417277
v 17.646175 4.219967 17.646194
v 24.933384 0.000000 10.327757
v 23.055847 -4.219967 9.550056
v 18.837067 -5.262213 7.802577
v 15.453866 -2.341905 6.401208
v 15.453866 2.341905 6.401208
v 18.837067 5.262213 7.802577
v 23.055847 4.219967 9.550056
vt 0.500000 0.571429
vt 0.500000 0.714286
vt 0.562500 0.714286
vt 0.562500 0.571429
vt 0.500000 0.857143
vt 0.562500 0.857143
vt 0.500000 1.000000
vt 0.562500 1.000000
vt 0.500000 -0.000000
vt 0.500000 0.142857
vt 0.562500 0.142857
vt 0.562500 -0.000000
vt 0.500000 0.285714
vt 0.562500 0.285714
vt 0.500000 0.428571
vt 0.562500 0.428571
vt 0.625000 0.714286
vt 0.625000 0.571429
vt 0.625000 0.857143
vt 0.625000 1.000000
vt 0.625000 0.142857
vt 0.625000 -0.000000
vt 0.625000 0.285714
vt 0.625000 0.428571
vt 0.687500 0.714286
vt 0.687500 0.571429
vt 0.687500 0.857143
vt 0.687500 1.000000
vt 0.687500 0.142857
vt 0.687500 -0.000000
vt 0.687500 0.285714
vt 0.687500 0.428571
vt 0.750000 0.714286
vt 0.750000 0.571429
vt 0.750000 0.857143
vt 0.750000 1.000000
vt 0.750000 0.142857
vt 0.750000 -0.000000
vt 0.750000 0.285714
vt 0.750000 0.428571
vt 0.812500 0.714286
vt 0.812500 0.571429
vt 0.812500 0.857143
vt 0.812500 1.000000
vt 0.812500 0.142857
vt 0.812500 -0.000000
vt 0.812500 0.285714
vt 0.812500 0.428571
vt 0.875000 0.714286
vt 0.875000 0.571429
vt 0.875000 0.857143
vt 0.875000 1.000000
vt 0.875000 0.142857
vt 0.875000 -0.000000
vt 0.875000 0.285714
vt 0.875000 0.428571
vt 0.937500 0.714286
vt 0.937500 0.571429
vt 0.937500 0.857143
vt 0.937500 1.000000
vt 0.937500 0.142857
vt 0.937500 -0.000000
vt 0.937500 0.285714
vt 0.937500 0.428571
vt 1.000000 0.714286
vt 1.000000 0.571429
vt 1.000000 0.857143
vt 1.000000 1.000000
vt 1.000000 0.142857
vt 1.000000 -0.000000
vt 1.000000 0.285714
vt 1.000000 0.428571
vt 0.000000 0.571429
vt 0.000000 0.714286
vt 0.062500 0.714286
vt 0.062500 0.571429
vt 0.000000 0.857143
vt 0.062500 0.857143
vt 0.000000 1.000000
vt 0.062500 1.000000
vt 0.000000 -0.000000
vt 0.000000 0.142857
vt 0.062500 0.142857
vt 0.062500 -0.000000
vt 0.000000 0.285714
vt 0.062500 0.285714
vt 0.000000 0.428571
vt 0.062500 0.428571
vt 0.125000 0.714286
vt 0.125000 0.571429
vt 0.125000 0.857143
vt 0.125000 1.000000
vt 0.125000 0.142857
vt 0.125000 -0.000000
vt 0.125000 0.285714
vt 0.125000 0.428571
vt 0.187500 0.714286
vt 0.187500 0.571429
vt 0.187500 0.857143
vt 0.187500 1.000000
vt 0.187500 0.142857
vt 0.187500 -0.000000
vt 0.187500 0.285714
vt 0.187500 0.428571
vt 0.250000 0.714286
vt 0.250000 0.571429
vt 0.250000 0.857143
vt 0.250000 1.000000
vt 0.250000 0.142857
vt 0.250000 -0.000000
vt 0.250000 0.285714
vt 0.250000 0.428571
vt 0.312500 0.714286
vt 0.312500 0.571429
vt 0.312500 0.857143
vt 0.312500 1.000000
vt 0.312500 0.142857
vt 0.312500 -0.000000
vt 0.312500 0.285714
vt 0.312500 0.428571
vt 0.375000 0.714286
vt 0.375000 0.571429
vt 0.375000 0.857143
vt 0.375000 1.000000
vt 0.375000 0.142857
vt 0.375000 -0.000000
vt 0.375000 0.285714
vt 0.375000 0.428571
vt 0.437500 0.714286
vt 0.437500 0.571429
vt 0.437500 0.857143
vt 0.437500 1.000000
vt 0.437500 0.142857
vt 0.437500 -0.000000
vt 0.437500 0.285714
vt 0.437500 0.428571
vn 0.8868 -0.4271 -0.1764
vn 0.2223 -0.9740 -0.0442
vn -0.6187 -0.7759 0.1231
vn -0.9808 0.0000 0.1951
vn -0.6187 0.7759 0.1231
vn 0.2223 0.9740 -0.0442
vn 0.8868 0.4271 -0.1764
vn 0.7518 -0.4271 -0.5024
vn 0.1885 -0.9740 -0.1259
vn -0.5246 -0.7759 0.3505
vn -0.8315 0.0000 0.5556
vn -0.5246 0.7759 0.3505
vn 0.1885 0.9740 -0.1259
vn 0.7518 0.4271 -0.5024
vn 0.5024 -0.4271 -0.7518
vn 0.1259 -0.9740 -0.1885
vn -0.3505 -0.7759 0.5246
vn -0.5556 0.0000 0.8315
vn -0.3505 0.7759 0.5246
vn 0.1259 0.9740 -0.1885
vn 0.5024 0.4271 -0.7518
vn 0.1764 -0.4271 -0.8868
vn 0.0442 -0.9740 -0.2223
vn -0.1231 -0.7759 0.6187
vn -0.1951 0.0000 0.9808
vn -0.1231 0.7759 0.6187
vn 0.0442 0.9740 -0.2223
vn 0.1764 0.4271 -0.8868
vn -0.1764 -0.4271 -0.8868
vn -0.0442 -0.9740 -0.2223
vn 0.1231 -0.7759 0.6187
vn 0.1951 0.0000 0.9808
vn 0.1231 0.7759 0.6187
vn -0.0442 0.9740 -0.2223
vn -0.1764 0.4271 -0.8868
vn -0.5024 -0.4271 -0.7518
vn -0.1259 -0.9740 -0.1885
vn 0.3505 -0.7759 0.5246
vn 0.5556 0.0000 0.8315
vn 0.3505 0.7759 0.5246
vn -0.1259 0.9740 -0.1885
vn -0.5024 0.4271 -0.7518
vn -0.7518 -0.4271 -0.5024
vn -0.1885 -0.9740 -0.1259
vn 0.5246 -0.7759 0.3505
vn 0.8315 0.0000 0.5556
vn 0.5246 0.7759 0.3505
vn -0.1885 0.9740 -0.1259
vn -0.7518 0.4271 -0.5024
vn -0.8868 -0.4271 -0.1764
vn -0.2223 -0.9740 -0.0442
vn 0.6187 -0.7759 0.1231
vn 0.9808 0.0000 0.1951
vn 0.6187 0.7759 0.1231
vn -0.2223 0.9740 -0.0442
vn -0.8868 0.4271 -0.1764
vn -0.8868 -0.4271 0.1764
vn -0.2223 -0.9740 0.0442
vn 0.6187 -0.7759 -0.1231
vn 0.9808 0.0000 -0.1951
vn 0.6187 0.7759 -0.1231
vn -0.2223 0.9740 0.0442
vn -0.8868 0.4271 0.1764
vn -0.7518 -0.4271 0.5024
vn -0.1885 -0.9740 0.1259
vn 0.5246 -0.7759 -0.3505
vn 0.8315 0.0000 -0.5556
vn 0.5246 0.7759 -0.3505
vn -0.1885 0.9740 0.1259
vn -0.7518 0.4271 0.5024
vn -0.5024 -0.4271 0.7518
vn -0.1259 -0.9740 0.1885
vn 0.3505 -0.7759 -0.5246
vn 0.5556 0.0000 -0.8315
vn 0.3505 0.7759 -0.5246
vn -0.1259 0.9740 0.1885
vn -0.5024 0.4271 0.7518
vn -0.1764 -0.4271 0.8868
vn -0.0442 -0.9740 0.2223
vn 0.1231 -0.7759 -0.6187
vn 0.1951 0.0000 -0.9808
vn 0.1231 0.7759 -0.6187
vn -0.0442 0.9740 0.2223
vn -0.1764 0.4271 0.8868
vn 0.1764 -0.4271 0.8868
vn 0.0442 -0.9740 0.2223
vn -0.1231 -0.7759 -0.6187
vn -0.1951 0.0000 -0.9808
vn -0.1231 0.7759 -0.6187
vn 0.0442 0.9740 0.2223
vn 0.1764 0.4271 0.8868
vn 0.5024 -0.4271 0.7518
vn 0.1259 -0.9740 0.1885
vn -0.3505 -0.7759 -0.5246
vn -0.5556 0.0000 -0.8315
vn -0.3505 0.7759 -0.5246
vn 0.1259 0.9740 0.1885
vn 0.5024 0.4271 0.7518
vn 0.7518 -0.4271 0.5024
vn 0.1885 -0.9740 0.1259
vn -0.5246 -0.7759 -0.3505
vn -0.8315 0.0000 -0.5556
vn -0.5246 0.7759 -0.3505
vn 0.1885 0.9740 0.1259
vn 0.7518 0.4271 0.5024
vn 0.8868 -0.4271 0.1764
vn 0.2223 -0.9740 0.0442
vn -0.6187 -0.7759 -0.1231
vn -0.9808 0.0000 -0.1951
vn -0.6187 0.7759 -0.1231
vn 0.2223 0.9740 0.0442
vn 0.8868 0.4271 0.1764
usemtl None
s off
f 1/1/1 2/2/1 9/3/1 8/4/1
f 2/2/2 3/5/2 10/6/2 9/3/2
f 3/5/3 4/7/3 11/8/3 10/6/3
f 4/9/4 5/10/4 12/11/4 11/12/4
f 5/10/5 6/13/5 13/14/5 12/11/5
f 6/13/6 7/15/6 14/16/6 13/14/6
f 7/15/7 1/1/7 8/4/7 14/16/7
f 8/4/8 9/3/8 16/17/8 15/18/8
f 9/3/9 10/6/9 17/19/9 16/17/9
f 10/6/10 11/8/10 18/20/10 17/19/10
f 11/12/11 12/11/11 19/21/11 18/22/11
f 12/11/12 13/14/12 20/23/12 19/21/12
f 13/14/13 14/16/13 21/24/13 20/23/13
f 14/16/14 8/4/14 15/18/14 21/24/14
f 15/18/15 16/17/15 23/25/15 22/26/15
f 16/17/16 17/19/16 24/27/16 23/25/16
f 17/19/17 18/20/17 25/28/17 24/27/17
f 18/22/18 19/21/18 26/29/18 25/30/18
f 19/21/19 20/23/19 27/31/19 26/29/19
f 20/23/20 21/24/20 28/32/20 27/31/20
f 21/24/21 15/18/21 22/26/21 28/32/21
f 22/26/22 23/25/22 30/33/22 29/34/22
f 23/25/23 24/27/23 31/35/23 30/33/23
f 24/27/24 25/28/24 32/36/24 31/35/24
f 25/30/25 26/29/25 33/37/25 32/38/25
f 26/29/26 27/31/26 34/39/26 33/37/26
f 27/31/27 28/32/27 35/40/27 34/39/27
f 28/32/28 22/26/28 29/34/28 35/40/28
f 29/34/29 30/33/29 37/41/29 36/42/29
f 30/33/30 31/35/30 38/43/30 37/41/30
f 31/35/31 32/36/31 39/44/31 38/43/31
f 32/38/32 33/37/32 40/45/32 39/46/32
f 33/37/33 34/39/33 41/47/33 40/45/33
f 34/39/34 35/40/34 42/48/34 41/47/34
f 35/40/35 29/34/35 36/42/35 42/48/35
f 36/42/36 37/41/36 44/49/36 43/50/36
f 37/41/37 38/43/37 45/51/37 44/49/37
f 38/43/38 39/44/38 46/52/38 45/51/38
f 39/46/39 40/45/39 47/53/39 46/54/39
f 40/45/40 41/47/40 48/55/40 47/53/40
f 41/47/41 42/48/41 49/56/41 48/55/41
f 42/48/42 36/42/42 43/50/42 49/56/42
f 43/50/43 44/49/43 51/57/43 50/58/43
f 44/49/44 45/51/44 52/59/44 51/57/44
f 45/51/45 46/52/45 53/60/45 52/59/45
f 46/54/46 47/53/46 54/61/46 53/62/46
f 47/53/47 48/55/47 55/63/47 54/61/47
f 48/55/48 49/56/48 56/64/48 55/63/48
f 49/56/49 43/50/49 50/58/49 56/64/49
f 50/58/50 51/57/50 58/65/50 57/66/50
f 51/57/51 52/59/51 59/67/51 58/65/51
f 52/59/52 53/60/52 60/68/52 59/67/52
f 53/62/53 54/61/53 61/69/53 60/70/53
f 54/61/54 55/63/54 62/71/54 61/69/54
f 55/63/55 56/64/55 63/72/55 62/71/55
f 56/64/56 50/58/56 57/66/56 63/72/56
f 57/73/57 58/74/57 65/75/57 64/76/57
f 58/74/58 59/77/58 66/78/58 65/75/58
f 59/77/59 60/79/59 67/80/59 66/78/59
f 60/81/60 61/82/60 68/83/60 67/84/60
f 61/82/61 62/85/61 69/86/61 68/83/61
f 62/85/62 63/87/62 70/88/62 69/86/62
f 63/87/63 57/73/63 64/76/63 70/88/63
f 64/76/64 65/75/64 72/89/64 71/90/64
f 65/75/65 66/78/65 73/91/65 72/89/65
f 66/78/66 67/80/66 74/92/66 73/91/66
f 67/84/67 68/83/67 75/93/67 74/94/67
f 68/83/68 69/86/68 76/95/68 75/93/68
f 69/86/69 70/88/69 77/96/69 76/95/69
f 70/88/70 64/76/70 71/90/70 77/96/70
f 71/90/71 72/89/71 79/97/71 78/98/71
f 72/89/72 73/91/72 80/99/72 79/97/72
f 73/91/73 74/92/73 81/100/73 80/99/73
f 74/94/74 75/93/74 82/101/74 81/102/74
f 75/93/75 76/95/75 83/103/75 82/101/75
f 76/95/76 77/96/76 84/104/76 83/103/76
f 77/96/77 71/90/77 78/98/77 84/104/77
f 78/98/78 79/97/78 86/105/78 85/106/78
f 79/97/79 80/99/79 87/107/79 86/105/79
f 80/99/80 81/100/80 88/108/80 87/107/80
f 81/102/81 82/101/81 89/109/81 88/110/81
f 82/101/82 83/103/82 90/111/82 89/109/82
f 83/103/83 84/104/83 91/112/83 90/111/83
f 84/104/84 78/98/84 85/106/84 91/112/84
f 85/106/85 86/105/85 93/113/85 92/114/85
f 86/105/86 87/107/86 94/115/86 93/113/86
f 87/107/87 88/108/87 95/116/87 94/115/87
f 88/110/88 89/109/88 96/117/88 95/118/88
f 89/109/89 90/111/89 97/119/89 96/117/89
f 90/111/90 91/112/90 98/120/90 97/119/90
f 91/112/91 85/106/91 92/114/91 98/120/91
f 92/114/92 93/113/92 100/121/92 99/122/92
f 93/113/93 94/115/93 101/123/93 100/121/93
f 94/115/94 95/116/94 102/124/94 101/123/94
f 95/118/95 96/117/95 103/125/95 102/126/95
f 96/117/96 97/119/96 104/127/96 103/125/96
f 97/119/97 98/120/97 105/128/97 104/127/97
f 98/120/98 92/114/98 99/122/98 105/128/98
f 99/122/99 100/121/99 107/129/99 106/130/99
f 100/121/100 101/123/100 108/131/100 107/129/100
f 101/123/101 102/124/101 109/132/101 108/131/101
f 102/126/102 103/125/102 110/133/102 109/134/102
f 103/125/103 104/127/103 111/135/103 110/133/103
f 104/127/104 105/128/104 112/136/104 111/135/104
f 105/128/105 99/122/105 106/130/105 112/136/105
f 106/130/106 107/129/106 2/2/106 1/1/106
f 107/129/107 108/131/107 3/5/107 2/2/107
f 108/131/108 109/132/108 4/7/108 3/5/108
f 109/134/109 110/133/109 5/10/109 4/9/109
f 110/133/110 111/135/110 6/13/110 5/10/110
f 111/135/111 112/136/111 7/15/111 6/13/111
f 112/136/112 106/130/112 1/1/112 7/15/112
g SpokeYPos_Spoke0
v 0.000000 1.600000 12.781633
v 0.000000 1.600000 6.781633
v -1.131371 1.131371 12.781633
v -1.131371 1.131371 6.781633
v -1.600000 0.000000 12.781633
v -1.600000 -0.000000 6.781633
v -1.131371 -1.131371 12.781633
v -1.131371 -1.131371 6.781633
v 0.000000 -1.600000 12.781633
v 0.000000 -1.600000 6.781633
v 1.131371 -1.131371 12.781633
v 1.131371 -1.131371 6.781633
v 1.600000 0.000000 12.781633
v 1.600000 -0.000000 6.781633
v 1.131371 1.131371 12.781633
v 1.131371 1.131371 6.781633
v -0.000000 1.428813 16.809912
v -2.618549 1.010323 16.809912
v -3.703188 0.000000 16.809912
v -2.618549 -1.010323 16.809912
v 0.000000 -1.428813 16.809912
v 2.618549 -1.010323 16.809912
v 3.703188 0.000000 16.809912
v 2.618549 1.010323 16.809912
vt 1.000000 0.500000
vt 1.000000 1.000000
vt 0.875000 1.000000
vt 0.875000 0.500000
vt 0.750000 1.000000
vt 0.750000 0.500000
vt 0.625000 1.000000
vt 0.625000 0.500000
vt 0.500000 1.000000
vt 0.500000 0.500000
vt 0.375000 1.000000
vt 0.375000 0.500000
vt 0.250000 1.000000
vt 0.250000 0.500000
vt 0.419706 0.419706
vt 0.250000 0.490000
vt 0.080294 0.419706
vt 0.010000 0.250000
vt 0.080294 0.080294
vt 0.250000 0.010000
vt 0.419706 0.080294
vt 0.490000 0.250000
vt 0.125000 1.000000
vt 0.125000 0.500000
vt 0.000000 1.000000
vt 0.000000 0.500000
vt 0.250000 0.500000
vt 0.375000 0.500000
vt 0.750000 0.490000
vt 0.919706 0.419706
vt 0.990000 0.250000
vt 0.919706 0.080294
vt 0.750000 0.010000
vt 0.580294 0.080294
vt 0.510000 0.250000
vt 0.580294 0.419706
vt 0.500000 0.500000
vt 0.625000 0.500000
vt 0.125000 0.500000
vt 0.750000 0.500000
vt 0.875000 0.500000
vt 0.000000 0.500000
vt 1.000000 0.500000
vn -0.3827 0.9239 -0.0000
vn -0.9239 0.3827 -0.0000
vn -0.9239 -0.3827 0.0000
vn -0.3827 -0.9239 0.0000
vn 0.3827 -0.9239 0.0000
vn 0.9239 -0.3827 0.0000
vn -0.0000 0.0000 -1.0000
vn 0.9239 0.3827 -0.0000
vn 0.3827 0.9239 -0.0000
vn 0.7636 -0.5538 -0.3320
vn 0.0000 0.0000 1.0000
vn -0.2302 -0.9731 -0.0072
vn 0.7636 0.5538 -0.3320
vn -0.7636 0.5538 -0.3320
vn 0.2302 -0.9731 -0.0072
vn 0.2302 0.9731 -0.0072
vn -0.2302 0.9731 -0.0072
vn -0.7636 -0.5538 -0.3320
usemtl None
s off
f 113/137/113 114/138/113 116/139/113 115/140/113
f 115/140/114 116/139/114 118/141/114 117/142/114
f 117/142/115 118/141/115 120/143/115 119/144/115
f 119/144/116 120/143/116 122/145/116 121/146/116
f 121/146/117 122/145/117 124/147/117 123/148/117
f 123/148/118 124/147/118 126/149/118 125/150/118
f 116/151/119 114/152/119 128/153/119 126/154/119 124/155/119 122/156/119 120/157/119 118/158/119
f 125/150/120 126/149/120 128/159/120 127/160/120
f 127/160/121 128/159/121 114/161/121 113/162/121
f 123/148/122 125/150/122 135/163/122 134/164/122
f 129/165/123 130/166/123 131/167/123 132/168/123 133/169/123 134/170/123 135/171/123 136/172/123
f 119/144/124 121/146/124 133/173/124 132/174/124
f 125/150/125 127/160/125 136/175/125 135/163/125
f 115/140/126 117/142/126 131/176/126 130/177/126
f 121/146/127 123/148/127 134/164/127 133/173/127
f 127/160/128 113/162/128 129/178/128 136/175/128
f 113/137/129 115/140/129 130/177/129 129/179/129
f 117/142/130 119/144/130 132/174/130 131/176/130
g SpokeYNeg_Spoke1
v 0.000000 -1.600000 -13.239883
v 0.000000 -1.600000 -7.239883
v -1.131371 -1.131371 -13.239883
v -1.131371 -1.131371 -7.239883
v -1.600000 0.000000 -13.239883
v -1.600000 -0.000000 -7.239883
v -1.131371 1.131371 -13.239883
v -1.131371 1.131371 -7.239883
v 0.000000 1.600000 -13.239883
v 0.000000 1.600000 -7.239883
v 1.131371 1.131371 -13.239883
v 1.131371 1.131371 -7.239883
v 1.600000 0.000000 -13.239883
v 1.600000 -0.000000 -7.239883
v 1.131371 -1.131371 -13.239883
v 1.131371 -1.131371 -7.239883
v -0.000000 -1.428812 -17.268162
v -2.618549 -1.010323 -17.268162
v -3.703188 0.000001 -17.268162
v -2.618549 1.010324 -17.268162
v 0.000000 1.428813 -17.268162
v 2.618549 1.010323 -17.268162
v 3.703188 0.000000 -17.268162
v 2.618549 -1.010323 -17.268162
vt 1.000000 0.500000
vt 1.000000 1.000000
vt 0.875000 1.000000
vt 0.875000 0.500000
vt 0.750000 1.000000
vt 0.750000 0.500000
vt 0.625000 1.000000
vt 0.625000 0.500000
vt 0.500000 1.000000
vt 0.500000 0.500000
vt 0.375000 1.000000
vt 0.375000 0.500000
vt 0.250000 1.000000
vt 0.250000 0.500000
vt 0.419706 0.419706
vt 0.250000 0.490000
vt 0.080294 0.419706
vt 0.010000 0.250000
vt 0.080294 0.080294
vt 0.250000 0.010000
vt 0.419706 0.080294
vt 0.490000 0.250000
vt 0.125000 1.000000
vt 0.125000 0.500000
vt 0.000000 1.000000
vt 0.000000 0.500000
vt 0.250000 0.500000
vt 0.375000 0.500000
vt 0.750000 0.490000
vt 0.919706 0.419706
vt 0.990000 0.250000
vt 0.919706 0.080294
vt 0.750000 0.010000
vt 0.580294 0.080294
vt 0.510000 0.250000
vt 0.580294 0.419706
vt 0.500000 0.500000
vt 0.625000 0.500000
vt 0.125000 0.500000
vt 0.750000 0.500000
vt 0.875000 0.500000
vt 0.000000 0.500000
vt 1.000000 0.500000
vn -0.3827 -0.9239 -0.0000
vn -0.9239 -0.3827 -0.0000
vn -0.9239 0.3827 0.0000
vn -0.3827 0.9239 0.0000
vn 0.3827 0.9239 0.0000
vn 0.9239 0.3827 0.0000
vn 0.0000 0.0000 1.0000
vn 0.9239 -0.3827 -0.0000
vn 0.3827 -0.9239 -0.0000
vn 0.7636 0.5538 0.3320
vn -0.0000 0.0000 -1.0000
vn -0.2302 0.9731 0.0072
vn 0.7636 -0.5538 0.3320
vn -0.7636 -0.5538 0.3320
vn 0.2302 0.9731 0.0072
vn 0.2302 -0.9731 0.0072
vn -0.2302 -0.9731 0.0072
vn -0.7636 0.5538 0.3320
usemtl None
s off
f 137/180/131 138/181/131 140/182/131 139/183/131
f 139/183/132 140/182/132 142/184/132 141/185/132
f 141/185/133 142/184/133 144/186/133 143/187/133
f 143/187/134 144/186/134 146/188/134 145/189/134
f 145/189/135 146/188/135 148/190/135 147/191/135
f 147/191/136 148/190/136 150/192/136 149/193/136
f 140/194/137 138/195/137 152/196/137 150/197/137 148/198/137 146/199/137 144/200/137 142/201/137
f 149/193/138 150/192/138 152/202/138 151/203/138
f 151/203/139 152/202/139 138/204/139 137/205/139
f 147/191/140 149/193/140 159/206/140 158/207/140
f 153/208/141 154/209/141 155/210/141 156/211/141 157/212/141 158/213/141 159/214/141 160/215/141
f 143/187/142 145/189/142 157/216/142 156/217/142
f 149/193/143 151/203/143 160/218/143 159/206/143
f 139/183/144 141/185/144 155/219/144 154/220/144
f 145/189/145 147/191/145 158/207/145 157/216/145
f 151/203/146 137/205/146 153/221/146 160/218/146
f 137/180/147 139/183/147 154/220/147 153/222/147
f 141/185/148 143/187/148 156/217/148 155/219/148
